<svg width="17" height="17" fill="none" xmlns="http://www.w3.org/2000/svg"><path d="M13.224 4.791a.645.645 0 00-.179 0C11.725 4.75 10.68 3.695 10.68 2.4c0-1.32 1.098-2.4 2.46-2.4 1.353 0 2.46 1.071 2.46 2.4-.009 1.295-1.056 2.35-2.375 2.391zM16 10.546c-.954.623-2.29.855-3.525.697a5.29 5.29 0 00.502-2.234 5 5 0 00-.544-2.308c1.26-.166 2.596.066 3.558.69 1.345.863 1.345 2.283.008 3.155zM3.783 4.791a.645.645 0 01.18 0C5.281 4.75 6.328 3.695 6.328 2.4 6.329 1.07 5.23 0 3.869 0 2.515 0 1.417 1.071 1.417 2.4c0 1.295 1.047 2.35 2.366 2.391zm.094 4.219c0 .805.18 1.569.503 2.258-1.2.125-2.452-.124-3.371-.714-1.345-.872-1.345-2.292 0-3.164.91-.597 2.196-.838 3.405-.705a5.172 5.172 0 00-.537 2.325zm4.742 2.507a.986.986 0 00-.221 0C6.83 11.467 5.58 10.214 5.58 8.67c.009-1.578 1.311-2.856 2.937-2.856 1.617 0 2.928 1.278 2.928 2.856-.008 1.545-1.251 2.798-2.826 2.848zm-2.766 1.719c-1.286.839-1.286 2.217 0 3.048 1.464.955 3.864.955 5.328 0 1.286-.839 1.286-2.217 0-3.048-1.455-.955-3.856-.955-5.328 0z" fill="#7687B0"/></svg>