<svg width="17" height="17" fill="none" xmlns="http://www.w3.org/2000/svg"><g clip-path="url(#clip0_6_2721)" fill="#7687B0"><path d="M8.5 0C3.813 0 0 3.813 0 8.5 0 13.187 3.813 17 8.5 17c4.687 0 8.5-3.813 8.5-8.5C17 3.813 13.187 0 8.5 0zm4.043 12.897a.707.707 0 01-1.002 0L7.999 9.355a.705.705 0 01-.207-.5V4.25a.708.708 0 111.416 0v4.311l3.335 3.334a.708.708 0 010 1.002z"/><path d="M8.5 0C3.813 0 0 3.813 0 8.5 0 13.187 3.813 17 8.5 17c4.687 0 8.5-3.813 8.5-8.5C17 3.813 13.187 0 8.5 0zm4.043 12.897a.707.707 0 01-1.002 0L7.999 9.355a.705.705 0 01-.207-.5V4.25a.708.708 0 111.416 0v4.311l3.335 3.334a.708.708 0 010 1.002z"/></g><defs><clipPath id="clip0_6_2721"><path fill="#fff" d="M0 0h17v17H0z"/></clipPath></defs></svg>