<svg width="17" height="17" fill="none" xmlns="http://www.w3.org/2000/svg"><path d="M14.546 9.075h-1.315c.135.367.208.763.208 1.176v4.969c0 .171-.03.337-.085.49h2.174c.812 0 1.472-.66 1.472-1.472v-2.709c0-1.353-1.1-2.454-2.454-2.454zM3.562 10.25c0-.412.073-.808.207-1.175H2.454A2.457 2.457 0 000 11.53v2.709c0 .812.66 1.472 1.472 1.472h2.174a1.466 1.466 0 01-.084-.49v-4.97zm6.441-2.453H6.997a2.457 2.457 0 00-2.454 2.454v4.969c0 .27.22.49.49.49h6.933a.49.49 0 00.49-.49v-4.97c0-1.352-1.1-2.453-2.453-2.453zM8.5 1.29a2.955 2.955 0 00-2.95 2.95 2.953 2.953 0 004.393 2.575 2.953 2.953 0 001.51-2.574A2.955 2.955 0 008.5 1.29zM3.318 4.04A2.21 2.21 0 001.11 6.248a2.21 2.21 0 003.077 2.028 2.214 2.214 0 001.338-2.028A2.21 2.21 0 003.318 4.04zm10.365 0a2.21 2.21 0 00-1.948 3.244c.236.441.616.793 1.078.992a2.21 2.21 0 003.077-2.028 2.21 2.21 0 00-2.207-2.208z" fill="#7582A7"/></svg>