<svg width="18" height="19" fill="none" xmlns="http://www.w3.org/2000/svg"><g clip-path="url(#clip0_7_2841)" fill="#7687B0"><path d="M9 .473c-4.963 0-9 4.086-9 9.109s4.037 9.109 9 9.109 9-4.086 9-9.11C18 4.56 13.963.474 9 .474zm4.28 13.82a.744.744 0 01-1.06 0l-3.75-3.795a.76.76 0 01-.22-.537V5.027c0-.42.336-.759.75-.759s.75.34.75.76v4.62l3.53 3.572a.765.765 0 010 1.073z"/><path d="M9 .473c-4.963 0-9 4.086-9 9.109s4.037 9.109 9 9.109 9-4.086 9-9.11C18 4.56 13.963.474 9 .474zm4.28 13.82a.744.744 0 01-1.06 0l-3.75-3.795a.76.76 0 01-.22-.537V5.027c0-.42.336-.759.75-.759s.75.34.75.76v4.62l3.53 3.572a.765.765 0 010 1.073z"/></g><defs><clipPath id="clip0_7_2841"><path fill="#fff" transform="translate(0 .473)" d="M0 0h18v18.218H0z"/></clipPath></defs></svg>