<svg version="1.1" id="Layer_1" xmlns="http://www.w3.org/2000/svg" x="0" y="0" viewBox="0 0 512 512" xml:space="preserve"><g id="XMLID_1_"><path id="XMLID_8_" d="M457.1 119.2h-95.9c14-13 23.3-30.7 23.3-50.3 0-38.2-32.6-68.9-71.7-68.9-23.3 0-43.8 11.2-55.9 31.7C243.9 11.2 224.3 0 201.1 0c-40 0-71.7 30.7-71.7 68.9 0 19.5 9.3 38.2 23.3 50.3H54.9c-20.5 0-36.3 16.8-36.3 36.3v23.3c0 2.8 1.9 4.7 4.7 4.7h465.5c2.8 0 4.7-1.9 4.7-4.7v-23.3c-.1-20.5-15.9-36.3-36.4-36.3zM311.9 31.7c21.4 0 38.2 16.8 38.2 36.3s-17.7 36.3-38.2 36.3h-38.2c0-54 16.7-72.6 38.2-72.6zm-111.8 0c21.4 0 38.2 18.6 38.2 73.5h-38.2c-21.4 0-38.2-16.8-38.2-36.3s16.8-37.2 38.2-37.2zM36.3 221.6v254.1c0 20.5 16.8 36.3 36.3 36.3h166.6V212.2H45.6c-4.6 0-9.3 4.7-9.3 9.4zm430.1-9.4H271.8V512h166.6c20.5 0 36.3-16.8 36.3-36.3V221.6c1-4.7-3.7-9.4-8.3-9.4z"/></g></svg>