<svg width="359" height="199" fill="none" xmlns="http://www.w3.org/2000/svg"><path fill-rule="evenodd" clip-rule="evenodd" d="M134.497 131.021c-2.808-1.426-5.206-.755-7.838 1.93 1.199-6.488 1.17-14.347-4.211-15.661-5.527-1.371-8.656 1.929-11.903 9.9.117-6.824-1.286-15.633-7.194-15.997-6.638-.391-8.86 4.838-10.498 16.444-2.077-6.488-7.78-17.87-14.506-15.605-6.58 2.21-6.14 8.278-2.485 20.639-3.597-5.341-10.82-13.284-15.646-10.263-4.591 2.852-3.334 7.523 1.755 16.192-3.363-1.398-6.844-1.538-9.651 1.091-6.288 5.928-3.246 11.55 5.44 21.981 8.714 10.431 71.268-8.026 74.222-12.725 2.982-4.726 7.632-15.297 2.515-17.926z" fill="#fff"/><path fill-rule="evenodd" clip-rule="evenodd" d="M95.406 114.602c-1.208 2.1-2.088 5.009-2.845 9.258l-.052.299-.007-.017c-1.206-2.93-2.757-5.824-4.445-8.078-3.072-4.103-6.47-6.012-10-4.823-3.541 1.189-5.337 3.477-5.654 7.107l-.02.243c-.165 2.408.262 5.407 1.342 9.651l.059.231-.076-.09c-1.489-1.77-3.085-3.38-4.647-4.624-3.484-2.773-6.705-3.694-9.325-2.053-2.56 1.59-3.568 3.779-3.142 6.731l.017.111c.335 2.157 1.407 4.763 3.372 8.32l.127.229-.074-.017c-3.157-.749-6.011-.16-8.33 2.011-3.322 3.133-4.294 6.328-3.123 10.138l.065.204c1.048 3.234 3.527 6.879 8.425 12.762 4.22 5.049 19.427 4.331 40.162-.396 17.006-3.877 33.793-9.707 35.499-12.419 1.825-2.892 3.576-6.723 4.396-9.986 1.108-4.406.566-7.682-2.218-9.112l-.107-.054c-2.392-1.178-4.591-1.017-6.793.46l-.123.084.018-.139c.354-2.819.371-5.421-.021-7.595-.634-3.517-2.327-5.854-5.221-6.561l-.174-.042c-4.815-1.127-8.058.903-11.063 6.714l-.105.205-.003-.049c-.185-2.521-.605-4.853-1.28-6.8-1.288-3.717-3.473-5.955-6.632-6.149-3.626-.214-6.175 1.132-7.946 4.15l-.056.096zm7.891-2.571c4.365.268 6.52 6.485 6.371 15.145-.016.936 1.34 1.19 1.695.318 3.28-8.053 6.139-10.564 10.865-9.392 4.006.979 5.042 6.723 3.567 14.703-.152.821.907 1.328 1.504.72l.193-.194c2.335-2.302 4.273-2.747 6.593-1.569 1.862.956 2.281 3.493 1.339 7.24-.775 3.081-2.455 6.757-4.194 9.512-.564.898-4.847 2.888-11.166 5.082-6.706 2.329-15.078 4.711-23.236 6.571-19.907 4.539-34.823 5.243-38.383.981l-.589-.71c-4.467-5.42-6.703-8.797-7.59-11.682-.982-3.198-.204-5.758 2.67-8.468 2.293-2.147 5.22-2.359 8.685-.919.77.321 1.526-.479 1.115-1.18-5.268-8.975-5.811-12.736-2.042-15.078 3.418-2.139 9.514 2.714 14.43 10.014.546.811 1.856.245 1.582-.682-3.895-13.172-3.542-17.781 1.932-19.619 2.603-.877 5.322.651 7.992 4.217 2.193 2.927 4.174 7.062 5.384 10.842.275.861 1.582.759 1.708-.134 1.716-12.158 3.999-16.047 9.575-15.718z" fill="#FE7624"/><path fill-rule="evenodd" clip-rule="evenodd" d="M134.994 148.724l.058-.168-84.136.252.059.167c-4.474.839-7.662 4.922-6.931 9.425l6.288 38.817 85.276-.252 6.288-38.817c.76-4.474-2.428-8.585-6.902-9.424z" fill="#FEBA91"/><path fill-rule="evenodd" clip-rule="evenodd" d="M272.793 134.741c-1.316 0-2.632.084-3.919.223-6.989-9.228-15.002-17.059-23.425-22.037-21.933-12.92-52.054-9.229-80.158.727-19.331 6.824-43.808 28.861-59.512 44.466-20.471 1.483-36.205 14.794-35.27 30.036.206 3.328 1.2 6.46 2.808 9.341l68.695.447c.117-.168.234-.363.351-.531l101.887-.336c.117.14.234.28.351.448l56.413-.084c5.234-6.628 8.364-15.102 8.364-24.359 0-21.198-16.377-38.341-36.585-38.341z" fill="#5D21D1"/><path fill-rule="evenodd" clip-rule="evenodd" d="M247.468 114.186c-25.94 15.381-49.219 15.717-64.309 13.228-13.979-2.294-24.068-7.439-27.343-9.453-.556.308-1.111.615-1.696.923 2.69 1.762 13.218 7.579 28.425 10.124a89.998 89.998 0 0015.002 1.258c5.118 0 10.236-.419 15.324-1.286 12.312-2.098 24.449-6.712 36.146-13.732a25.46 25.46 0 00-1.549-1.062zm-2.691 26.428c4.124-5.538 9.212-8.642 15.149-9.257 2.749-.28 5.059.084 6.434.391-.556-.671-1.112-1.342-1.667-1.985a21.203 21.203 0 00-4.855-.056c-4.474.447-10.967 2.517-16.494 9.956-.292.363-.175.895.205 1.174a.817.817 0 00.497.168c.293-.028.556-.14.731-.391zm.322 19.66c.497 0 .877-.364.906-.811.059-2.461 1.082-8.055 4.679-13.312 4.153-6.125 10.294-9.872 18.19-11.215-.38-.503-.76-1.006-1.17-1.51-7.896 1.538-14.271 5.593-18.511 11.802-3.539 5.202-4.884 10.907-4.972 14.179 0 .475.38.867.878.867zm-123.909-8.25c-3.714-.14-7.281.196-9.913.727-.878.839-1.755 1.678-2.603 2.517 3.246-1.706 21.728-3.832 29.361 4.474.176.196.41.28.673.28a.92.92 0 00.585-.196c.351-.307.409-.839.087-1.174-4.942-5.398-13.51-6.46-18.19-6.628zm-15.996 6.152h.058c-.029-.028-.058 0-.058 0s-.029 0 0 0z" fill="#fff"/><path fill-rule="evenodd" clip-rule="evenodd" d="M136.222 164.021c-10.323-7.467-23.191-7.914-28.63-7.69-.614.615-1.228 1.202-1.813 1.789 3.129-.251 18.073-.923 29.39 7.244a.91.91 0 001.229-.168c.292-.364.204-.895-.176-1.175zm-44.598 33.224s9.593-27.127 36.585-22.205c26.993 4.922 63.928 15.493 63.928 15.493v6.796l-100.513-.084z" fill="#fff"/><path fill-rule="evenodd" clip-rule="evenodd" d="M109.582 176.156c-4.588 2.048-8.521 5.204-11.843 9.163a43.339 43.339 0 00-6.538 10.632l-.143.344c-.045.108-.086.211-.124.308l-.114.297-.027.076c-.192.544.23 1.107.83 1.108l100.513.084c.485 0 .878-.376.878-.839v-6.796a.845.845 0 00-.626-.804l-1.167-.331-1.577-.442a1002.245 1002.245 0 00-31.378-8.216 733.957 733.957 0 00-11.785-2.777l-1.066-.24c-6.188-1.39-11.9-2.57-17.042-3.507-6.995-1.276-13.255-.53-18.791 1.94zm18.462-.292c5.408.986 11.457 2.243 18.033 3.732a722.17 722.17 0 0111.755 2.77 989.962 989.962 0 0122.692 5.836l1.23.332c2.472.669 4.749 1.295 6.792 1.864l2.714.761v5.33l-98.36-.082.08-.185a41.725 41.725 0 016.127-9.853c3.165-3.771 6.893-6.762 11.217-8.692 5.202-2.321 11.087-3.023 17.72-1.813z" fill="#2E186A"/><path fill-rule="evenodd" clip-rule="evenodd" d="M304.757 97.042s-2.164-1.034-2.428-3.412c-.263-2.377 1.404-12.724 4.095-14.178 2.719-1.454 15.09-7.859 17.371-7.719 2.281.14 3.217 19.129-19.038 25.31z" fill="#fff"/><path fill-rule="evenodd" clip-rule="evenodd" d="M306.073 80.598c4.62-15.465 8.393-18.933 10.586-17.423 1.989 1.37-2.047 11.215-3.217 16.333" fill="#fff"/><path fill-rule="evenodd" clip-rule="evenodd" d="M311.543 65.06l.142-.203c1.87-2.627 3.812-3.516 5.487-2.362.988.68 1.094 2.087.699 4.322l-.058.316c-.264 1.383-.699 2.998-1.409 5.346l-1.161 3.79c-.543 1.79-.725 2.46-.943 3.418-.104.452-.572.74-1.045.64-.473-.099-.773-.546-.67-.998l.083-.357c.189-.795.382-1.493.824-2.956l1.17-3.818c.782-2.574 1.23-4.252 1.479-5.66l.036-.213c.238-1.46.163-2.336-.03-2.469-.673-.463-1.698.032-3.138 2.126l-.13.192c-1.848 2.775-3.866 7.639-5.963 14.655-.133.445-.618.703-1.084.576-.466-.127-.736-.592-.603-1.037l.151-.502c2.137-7.06 4.209-11.962 6.163-14.806z" fill="#2E186A"/><path fill-rule="evenodd" clip-rule="evenodd" d="M326.456 77.242c2.31-3.607 6.141-3.412 4.153 2.713-1.96 5.985-3.393 13.76-7.048 17.283-3.656 3.524-4.972 5.09-4.972 5.09s-7.311 26.092-11.463 47.794c-5.996 31.378-17.342 37.419-27.929 33.811-10.586-3.58-12.546-17.786 1.901-45.333 14.447-27.575 22.08-43.627 22.08-43.627" fill="#fff"/><path fill-rule="evenodd" clip-rule="evenodd" d="M325.708 76.804c1.311-2.048 3.219-3.196 4.749-2.639 1.685.614 2.013 2.802 1.029 5.916l-.212.66c-.254.797-.514 1.671-.859 2.865l-.635 2.207c-1.859 6.413-3.236 9.698-5.521 11.943l-.575.557a119.362 119.362 0 00-3.006 3.014l-.323.34c-.338.358-.616.66-.836.906l-.132.148-.462 1.677-.414 1.523a789.174 789.174 0 00-6.197 24.384l-.336 1.43a564.177 564.177 0 00-2.034 8.998l-.253 1.174a399.797 399.797 0 00-1.496 7.297l-.206 1.069c-2.86 14.969-7.073 24.976-12.467 30.45-4.826 4.896-10.522 6.078-16.617 4.001-5.858-1.981-9.015-6.925-9.022-14.469-.008-7.853 3.36-18.464 10.222-31.631l1.348-2.578a1759.056 1759.056 0 0014.457-28.25l1.622-3.256c1.001-2.018 1.909-3.863 2.724-5.53l1.281-2.635.842-1.75c.201-.421.721-.608 1.162-.416a.825.825 0 01.455 1.066l-.11.234-.911 1.892-1.253 2.571c-.949 1.941-2.022 4.116-3.218 6.52l-1.227 2.46a1787.07 1787.07 0 01-15.395 30.024c-13.269 25.303-13.255 40.493-2.39 44.167 5.455 1.859 10.416.829 14.753-3.571 5.067-5.142 9.131-14.727 11.933-29.162l.085-.439c.578-3.02 1.235-6.221 1.963-9.579.73-3.364 1.526-6.86 2.377-10.458a785.097 785.097 0 014.629-18.507l.643-2.433c.298-1.124.584-2.19.856-3.195l.545-2.002.466-1.686a.822.822 0 01.163-.309l.121-.139.159-.18c.231-.258.519-.571.868-.941l.443-.465c.923-.96 2.063-2.1 3.442-3.43l.133-.13c1.874-1.883 3.145-4.82 4.784-10.353l1.051-3.634c.292-.999.525-1.77.759-2.498l.106-.326c.79-2.433.602-3.776.061-3.973-.54-.197-1.704.505-2.628 1.947a.9.9 0 01-1.206.278.818.818 0 01-.29-1.154z" fill="#2E186A"/><path fill-rule="evenodd" clip-rule="evenodd" d="M303.441 95.448c-2.106-1.37-1.843-9.256-4.211-12.696-2.925-4.28-5.791-8.726-.38-8.054 4.649.559 6.112 4.474 7.194 5.872" fill="#fff"/><path fill-rule="evenodd" clip-rule="evenodd" d="M295.062 77.07c-.608-2.341.82-3.587 3.897-3.205 2.582.31 4.453 1.532 5.967 3.483l.071.093c.553.74 1.605 2.426 1.744 2.62l.007.01a.814.814 0 01-.183 1.174.904.904 0 01-1.227-.176l-.03-.04c-.249-.354-1.343-2.105-1.791-2.68-1.25-1.611-2.72-2.572-4.781-2.82-1.075-.133-1.7-.038-1.93.162-.135.118-.181.393-.059.904l.018.071c.305 1.172 1.184 2.671 3.099 5.48l.098.144c.896 1.301 1.447 3.022 2.01 5.775l.114.568.343 1.775c.535 2.707.952 3.954 1.478 4.328l.027.019c.401.26.504.782.232 1.165a.903.903 0 01-1.219.222c-1.097-.714-1.569-2.034-2.21-5.258l-.395-2.04-.057-.285c-.522-2.589-1.019-4.191-1.743-5.278l-.543-.8c-1.766-2.62-2.59-4.077-2.937-5.41z" fill="#2E186A"/><path fill-rule="evenodd" clip-rule="evenodd" d="M323.766 83.786s4.123-9.564 5.497-14.01c1.521-4.839-3.801-5.538-6.375 1.426" fill="#fff"/><path fill-rule="evenodd" clip-rule="evenodd" d="M327.554 65.226c2.282-.142 3.393 1.982 2.579 4.696l-.028.091c-.42 1.36-1.109 3.248-2.008 5.543l-.161.409-.382.963a300.501 300.501 0 01-1.785 4.361l-.5 1.19-.517 1.22-.175.407c-.185.429-.698.633-1.146.456a.828.828 0 01-.495-1.05l.706-1.662.237-.562a308.273 308.273 0 001.791-4.349l.373-.932.251-.634c.937-2.377 1.657-4.333 2.093-5.722l.036-.117c.561-1.782.099-2.687-.755-2.634-1.263.079-2.891 1.708-3.953 4.581-.161.437-.662.666-1.119.512-.457-.155-.696-.634-.535-1.07 1.271-3.44 3.396-5.567 5.493-5.697z" fill="#2E186A"/><path fill-rule="evenodd" clip-rule="evenodd" d="M318.911 81.27s8.101-17.535 4.474-19.101c-3.304-1.427-5.819 4.978-9.972 17.339" fill="#fff"/><path fill-rule="evenodd" clip-rule="evenodd" d="M318.058 65.058c1.759-3.253 3.547-4.578 5.689-3.654 2.202.951 1.784 4.583-.185 10.513a80.787 80.787 0 01-1.122 3.142 111.86 111.86 0 01-1.66 4.123l-.212.497c-.199.462-.385.886-.555 1.267l-.299.663c-.196.423-.714.615-1.157.428a.824.824 0 01-.448-1.107l.228-.504.19-.427a112.164 112.164 0 002.264-5.51 80.589 80.589 0 001.098-3.08l.144-.437c1.476-4.572 1.808-7.686.992-8.039-1.016-.438-2.098.4-3.524 3.112l-.163.316c-1.313 2.58-2.718 6.345-5.09 13.403-.148.441-.642.684-1.103.542-.461-.141-.715-.614-.567-1.055l.51-1.51c2.167-6.391 3.499-9.869 4.803-12.369l.167-.314z" fill="#2E186A"/><path fill-rule="evenodd" clip-rule="evenodd" d="M186.522 94.022l1.141 19.772s-1.931 10.683 13.569 8.698c15.441-1.958 13.54-10.711 13.54-10.711l-4.767-24.555-23.483 6.796z" fill="#fff"/><path fill-rule="evenodd" clip-rule="evenodd" d="M209.751 86.423l-23.483 6.796a.843.843 0 00-.622.85l1.136 19.684-.012.09c-.006.049-.013.104-.019.166-.144 1.42.023 3.04.753 4.599 1.781 3.809 6.219 5.692 13.845 4.715 6.224-.789 10.273-2.719 12.493-5.483 1.614-2.009 2.052-4.122 1.839-5.913l-.015-.114a3.303 3.303 0 00-.028-.172l-4.77-24.568c-.095-.491-.616-.795-1.117-.65zm-22.315 8.21l21.886-6.333 4.596 23.677c.006.034.012.079.02.14.166 1.393-.184 3.078-1.487 4.701-1.911 2.378-5.537 4.107-11.334 4.842-6.912.885-10.577-.67-12.012-3.737-.586-1.254-.725-2.596-.607-3.753l.013-.118c.007-.055.012-.094.016-.115l.009-.063a.884.884 0 00.003-.126l-1.103-19.114z" fill="#2E186A"/><path fill-rule="evenodd" clip-rule="evenodd" d="M215.942 62.28s11.99-4.306 12.458 7.635c.468 11.942-12.458 8.838-12.458 8.838" fill="#fff"/><path fill-rule="evenodd" clip-rule="evenodd" d="M217.103 61.086c1.732-.392 3.519-.532 5.216-.268 4.133.644 6.741 3.536 6.958 9.066.224 5.718-2.438 8.848-6.912 9.784-1.821.381-3.739.36-5.552.096l-.283-.044a11.44 11.44 0 01-.802-.154c-.47-.113-.755-.568-.637-1.018.114-.433.561-.702 1.014-.62l.191.041.09.019c.201.04.433.08.691.117 1.618.235 3.332.255 4.913-.076 3.661-.766 5.725-3.193 5.533-8.082l-.013-.285c-.254-4.544-2.24-6.684-5.473-7.188-1.436-.223-3.004-.1-4.53.245-.296.067-.568.137-.814.208l-.12.036a8.77 8.77 0 00-.22.068l-.102.035c-.454.163-.96-.057-1.13-.49-.171-.434.059-.918.513-1.08l.113-.04c.304-.103.768-.237 1.356-.37z" fill="#2E186A"/><path fill-rule="evenodd" clip-rule="evenodd" d="M193.453 100.035c-12.985 0-23.513-10.068-23.513-22.485V57.918c0-7.943 6.756-14.403 15.061-14.403h20.588c6.288 0 11.406 4.894 11.406 10.907v23.1c0 12.417-10.528 22.513-23.542 22.513z" fill="#fff"/><path fill-rule="evenodd" clip-rule="evenodd" d="M205.589 42.676h-20.588c-8.79 0-15.938 6.836-15.938 15.242V77.55c0 12.88 10.921 23.324 24.39 23.324l.397-.003c13.324-.207 24.022-10.603 24.022-23.349v-23.1c0-6.476-5.511-11.746-12.283-11.746zm-20.588 1.678h20.588c5.803 0 10.528 4.519 10.528 10.068v23.1c0 11.83-9.929 21.48-22.289 21.67l-.382.004c-12.493 0-22.628-9.692-22.628-21.646V57.918c0-7.48 6.363-13.564 14.183-13.564z" fill="#2E186A"/><path fill-rule="evenodd" clip-rule="evenodd" d="M222.463 88.177c-.029-7.635-1.14-13.2-1.433-14.598 0-.084.029-.196.029-.28 0-1.762-1.491-3.188-3.333-3.188v3.188l.087 3.188a3.531 3.531 0 001.872-.615c1.082 6.432 3.217 25.617-5.79 41.921a500.434 500.434 0 01-4.709 8.418c-8.481 15.13-14.096 25.142-13.949 34.063 0 .447.409.839.877.839.497 0 .877-.392.877-.839-.117-8.502 5.411-18.346 13.745-33.252 1.492-2.685 3.042-5.425 4.709-8.446 5.878-10.655 7.077-22.4 7.018-30.399zM167.659 76.85c.41.225.848.364 1.346.392v-6.348c-1.55.14-2.779 1.258-2.983 2.713a.911.911 0 00-.147.475c0 1.287 0 31.406 9.359 44.998 9.563 13.927 12.516 21.869 13.189 35.349a.877.877 0 00.877.811h.029a.878.878 0 00.849-.867c-.673-13.871-3.685-21.981-13.482-36.216-7.487-10.851-8.803-33.448-9.037-41.306z" fill="#FE7624"/><path fill-rule="evenodd" clip-rule="evenodd" d="M186.244 63.203c.467-.007.855.336.89.776l.002.05.315 17.753.014.005c.064.02.134.016.231-.019l.043-.016c.451-.184 1.045-.809 1.727-2.003a.9.9 0 011.191-.334.82.82 0 01.349 1.138c-1.603 2.807-3.327 3.513-4.705 2.517a1.967 1.967 0 01-.44-.426.819.819 0 01-.154-.403l-.003-.062-.322-18.122c-.008-.464.378-.846.862-.854zm9.243 21.224c.49-.306 1.15-.078 1.32.457l.021.07c.021.077.045.179.067.303.181.983.083 2.07-.505 3.112-.979 1.736-3.097 2.867-6.507 3.188-.482.045-.911-.292-.959-.753-.047-.46.305-.871.787-.917 2.872-.27 4.46-1.12 5.135-2.315.167-.295.272-.6.327-.906l.019-.118-.027.014c-3.813 1.964-7.623 2.095-9.511.075l-.063-.069a.815.815 0 01.098-1.183.905.905 0 011.237.094c1.358 1.522 4.95 1.208 8.561-1.052zm-1.254-27.769c1.914-1.392 4.187-1.541 6.638.324.38.288.442.816.141 1.178a.905.905 0 01-1.233.135c-1.774-1.35-3.168-1.258-4.484-.302a5.71 5.71 0 00-.508.42l-.322.304a1.884 1.884 0 01-.125.107.907.907 0 01-.382.187c-.47.113-.946-.16-1.064-.61a.82.82 0 01.324-.874l.038-.026.192-.183c.263-.249.502-.454.785-.66zm6.093 14.879c.807 0 1.462-.964 1.462-2.153 0-1.19-.655-2.153-1.462-2.153-.808 0-1.463.964-1.463 2.153 0 1.19.655 2.153 1.463 2.153zm-21.261.532c.807 0 1.462-.965 1.462-2.154s-.655-2.153-1.462-2.153c-.808 0-1.462.964-1.462 2.153 0 1.19.654 2.154 1.462 2.154zm-4.078-15.676c2.19-1.67 4.591-1.749 6.7.842a.815.815 0 01-.153 1.177.904.904 0 01-1.231-.147c-1.424-1.748-2.72-1.706-4.222-.56a7.573 7.573 0 00-.59.503l-.344.33a2.308 2.308 0 01-.126.109.885.885 0 01-.393.197c-.47.112-.946-.161-1.064-.61a.82.82 0 01.324-.875l.033-.023.226-.217c.288-.275.543-.5.84-.726z" fill="#2E186A"/><path fill-rule="evenodd" clip-rule="evenodd" d="M199.331 38.621c-5.702.084-10.031.336-12.604.811-20.939 4.559-17.547 19.38-17.547 19.38s10.236 1.874 18.57-9.927c0 0 11.435 8.92 28.367 12.529.264-.056.585-.14.878-.224V62c.994-.25 2.602-.53 4.269-.419-.175-5.845-1.286-13.228-6.316-17.982-3.568-3.384-8.832-5.062-15.617-4.978z" fill="#2E186A"/><path fill-rule="evenodd" clip-rule="evenodd" d="M187.191 37.622c3.336-.443 8.589-.734 13.114-.707 9.039.092 15.08 3.277 18.66 8.894 1.409 2.211 2.392 4.728 3.054 7.552.489 2.084.751 3.994.997 6.693.042.462-.316.869-.798.909-.483.04-.908-.302-.951-.763l-.047-.502c-.545-5.635-1.48-9.45-3.754-13.016-3.26-5.115-8.737-8.003-17.176-8.089l-.515-.002c-4.321-.002-9.22.279-12.343.693-.48.064-.923-.256-.989-.715-.067-.46.268-.883.748-.947z" fill="#fff"/><path fill-rule="evenodd" clip-rule="evenodd" d="M254.281 26.456C247.058 6.712 226.587-4.391 208.543 1.65c-14.827 4.95-23.395 19.968-21.992 36.104 2.72-.447 6.99-.727 12.78-.81 7.282-.085 12.955 1.733 16.874 5.453 5.557 5.257 6.697 13.228 6.843 19.436 2.691.7 5.177 2.797 5.381 8.082.03.532-.468 4.643-.351 4.615 0 1.314.293 2.964 1.316 4.586 2.018 3.104 6.112 5.034 12.195 5.705h.117c.439 0 .819-.308.878-.727.058-.447-.293-.867-.761-.923-5.498-.615-9.183-2.265-10.908-4.922-.702-1.063-.965-2.153-1.053-3.104 1.492 1.678 4.094 3.496 8.218 3.496.994 0 2.076-.112 3.246-.336.468-.084.79-.531.673-.979a.848.848 0 00-1.024-.643c-5.322 1.063-8.276-.867-9.826-2.6a31.41 31.41 0 003.539-.952c18.014-6.068 26.787-26.959 19.593-46.675zM201.583 58.84c-6.396 0-11.581 4.959-11.581 11.075 0 6.117 5.185 11.075 11.581 11.075s11.58-4.958 11.58-11.075c0-6.116-5.184-11.074-11.58-11.074zm0 1.679c5.427 0 9.826 4.207 9.826 9.396 0 5.19-4.399 9.397-9.826 9.397-5.427 0-9.826-4.207-9.826-9.397s4.399-9.396 9.826-9.396z" fill="#2E186A"/><path fill-rule="evenodd" clip-rule="evenodd" d="M190.646 68.825c.484 0 .877.375.877.839 0 .446-.365.812-.826.837l-.051.001h-6.961c-.484 0-.877-.375-.877-.838 0-.447.365-.813.826-.838l.051-.001h6.961zm25.917-7.862a.898.898 0 011.195.317.817.817 0 01-.286 1.117l-.046.027-6.053 3.272a.9.9 0 01-1.196-.318.818.818 0 01.287-1.117l.045-.026 6.054-3.272z" fill="#2E186A"/><path fill-rule="evenodd" clip-rule="evenodd" d="M172.631 58.84c-6.396 0-11.581 4.959-11.581 11.075 0 6.117 5.185 11.075 11.581 11.075s11.581-4.958 11.581-11.075c0-6.116-5.185-11.074-11.581-11.074zm0 1.679c5.427 0 9.826 4.207 9.826 9.396 0 5.19-4.399 9.397-9.826 9.397-5.427 0-9.826-4.207-9.826-9.397s4.399-9.396 9.826-9.396z" fill="#2E186A"/><path fill-rule="evenodd" clip-rule="evenodd" d="M246.239 186.758h-6.083l-2.982-42.313c-.205-2.965-2.896-5.37-5.996-5.37h-84.779c-3.1 0-5.469 2.405-5.235 5.37l3.305 46.843c.205 2.965 2.895 5.37 5.995 5.37l95.746-.112c1.755 0 3.158-1.371 3.158-3.021v-3.719c.03-1.678-1.374-3.048-3.129-3.048z" fill="#FE7624"/><path fill-rule="evenodd" clip-rule="evenodd" d="M357.631 196.658c.484 0 .877.375.877.839 0 .446-.365.812-.826.837l-.051.002H1.113c-.484 0-.877-.376-.877-.839 0-.447.365-.812.826-.838l.051-.001h356.518z" fill="#2E186A"/></svg>