<svg width="1387" height="325" fill="none" xmlns="http://www.w3.org/2000/svg"><path d="M255.07 53h-68.677C179.549 53 174 58.528 174 65.362v85.605c0 27.755 19.716 56.719 34.581 73.416 3.005 3.376 8.278 1.163 8.278-3.354v-57.687c0-6.834 5.548-12.375 12.393-12.375h3.614c6.845 0 12.393-5.54 12.393-12.374v-24.234c0-6.835-5.548-12.375-12.393-12.375h-12.134a3.87 3.87 0 01-3.873-3.867 3.87 3.87 0 013.873-3.868h34.338c6.845 0 12.393-5.54 12.393-12.374v-16.5c0-6.835-5.548-12.375-12.393-12.375z" fill="#2F6FB1"/><path d="M224.604 213.49v-42.929c0-6.834 5.549-12.375 12.393-12.375h18.073c6.845 0 12.393 5.541 12.393 12.375v48.673c0 2.936 3.323 4.643 5.716 2.937a3.607 3.607 0 001.514-2.937v-56.923c0-6.265-5.087-11.344-11.361-11.344-6.274 0-11.36-5.078-11.36-11.343v-25.265c0-6.835 5.549-12.375 12.393-12.375h37.695c6.845 0 12.393 5.54 12.393 12.375v69.19c0 2.623 3.064 4.056 5.082 2.377a3.095 3.095 0 001.115-2.377v-76.925c0-6.834-5.549-12.374-12.393-12.374h-21.172c-6.844 0-12.392-5.541-12.392-12.375v-16.5c0-6.835 5.548-12.375 12.392-12.375h63.127c6.994 0 12.618 5.776 12.519 12.758-.242 17.038-.359 46.53.261 85.209.797 49.726-58.853 98.332-91.972 118.534-2.302 1.404-5.039 2.012-7.532.986-5.461-2.248-12.634-7.402-19.59-13.145-12.941-10.685-19.294-27.084-19.294-43.852z" fill="#2F6FB1"/><path d="M180.5 180.5c-48.287 33.492-86.929 63.84-111.62 87.122-24.69 23.281-32.691 37.404-22.651 39.977 10.04 2.573 37.506-6.561 77.749-25.857 40.243-19.295 90.792-47.567 143.092-80.03 52.3-32.464 103.138-67.125 143.911-98.118 40.773-30.993 68.976-56.413 79.837-71.96 10.86-15.547 3.711-20.265-20.237-13.355C446.632 25.189 410.459 41.749 362.5 68v3c44.144-24.162 69.992-34.96 92.035-41.32 22.044-6.36 28.624-2.017 18.627 12.293-9.996 14.31-35.956 37.709-73.485 66.236-37.53 28.527-84.323 60.431-132.463 90.312-48.139 29.881-94.666 55.903-131.708 73.664-37.042 17.76-62.323 26.168-71.564 23.799-9.242-2.368-1.876-15.367 20.85-36.797 22.726-21.429 52.262-45.36 96.708-76.187l-1-2.5z" fill="#4A94DF"/><path d="M358 177c50.108 31.562 87.771 58.458 114.023 80.987 26.252 22.529 35.397 36.629 25.876 39.898-9.521 3.268-37.119-4.497-78.091-21.972-40.972-17.476-92.783-43.581-146.606-73.868-53.823-30.286-106.326-62.88-148.565-92.227-42.239-29.348-71.6-53.634-83.079-68.72-11.48-15.085-4.368-20.037 20.124-14.013C86.173 33.11 124.656 49.1 174 73.5V76c-45.418-22.46-73.292-32.668-95.835-38.214-22.543-5.545-29.089-.987-18.522 12.899 10.566 13.886 37.59 36.24 76.469 63.252 38.879 27.013 87.206 57.014 136.747 84.891 49.541 27.877 97.23 51.905 134.943 67.991 37.712 16.085 63.115 23.233 71.878 20.224 8.764-3.008.347-15.987-23.817-36.723-24.164-20.737-52.242-43.269-98.363-72.32l.5-1z" fill="#4A94DF"/><path d="M362.5 130.622c59.036 2.667 107.289 7.806 138.66 14.518 31.37 6.711 42.575 14.567 31.654 22.192-10.921 7.626-43.272 14.536-91.393 19.521-48.12 4.985-108.945 7.728-171.831 7.748-62.886.021-123.827-2.683-172.16-7.637-48.332-4.953-80.978-11.843-92.224-19.461-11.245-7.619-.375-15.482 30.708-22.213C66.998 138.559 115.078 133.706 174 131v2c-54.234 2.491-90.941 7.392-119.552 13.588-28.611 6.195-38.616 13.433-28.265 20.445 10.351 7.013 40.4 13.354 84.887 17.914 44.488 4.56 100.581 7.048 158.464 7.029 57.883-.019 113.869-2.543 158.162-7.132 44.292-4.588 74.07-10.948 84.122-17.968 10.052-7.019-.262-14.25-29.136-20.427-28.875-6.177-65.842-11.493-120.182-13.949v-1.878z" fill="#4A94DF"/><circle cx="434.5" cy="184.5" r="22.5" fill="#4A94DF"/><path d="M438.121 180.982v-3.484h8.077V172H423.78v5.498h8.099v3.484c-6.785.321-11.879 1.658-11.879 3.259 0 1.602 5.088 2.93 11.879 3.259V199h6.242v-11.5c6.785-.318 11.879-1.655 11.879-3.259 0-1.604-5.088-2.938-11.879-3.259zM435 186.458c-7.347 0-13.303-1.114-13.303-2.456 0-1.156 4.339-2.126 10.176-2.385v3.936c1.004.044 2.049.07 3.121.07 1.073 0 2.123-.026 3.122-.07v-3.936c5.837.259 10.176 1.229 10.176 2.385.011 1.356-5.945 2.456-13.292 2.456z" fill="#fff"/><circle cx="116.5" cy="103.5" r="22.5" fill="#4A94DF"/><path d="M127.96 104.353c-.769-.994-1.929-1.676-3.479-2.047 1.974-1.007 2.842-2.717 2.604-5.13-.08-.874-.321-1.632-.726-2.275a4.545 4.545 0 00-1.64-1.55 9.028 9.028 0 00-2.246-.894 17.74 17.74 0 00-2.783-.448V87h-3.061v4.87c-.53 0-1.339.013-2.425.04V87h-3.062v5.01c-.437.013-1.08.02-1.928.02L105 92.01v3.26h2.206c1.008 0 1.597.45 1.769 1.351v5.705c.133 0 .239.007.319.02h-.319v7.991c-.105.676-.49 1.014-1.152 1.014h-2.207l-.616 3.638h3.976c.252 0 .616.003 1.093.009.477.007.835.01 1.073.01v5.069h3.062v-5.009c.557.013 1.365.02 2.425.02v4.989h3.061v-5.069a23.867 23.867 0 002.892-.298 11.738 11.738 0 002.416-.686c.768-.311 1.411-.699 1.927-1.163.517-.463.944-1.053 1.283-1.769.337-.716.553-1.544.645-2.485.173-1.842-.125-3.26-.893-4.254zm-13.697-8.865c.093 0 .355-.004.785-.01.431-.007.789-.014 1.074-.02.285-.007.669.01 1.153.05.484.039.891.092 1.222.158.332.066.696.176 1.094.328.397.152.715.338.954.557.238.218.44.497.606.835.166.338.248.725.248 1.162 0 .371-.059.71-.178 1.014a1.92 1.92 0 01-.537.766 5.513 5.513 0 01-.736.537 3.348 3.348 0 01-.964.367c-.39.093-.732.166-1.023.219a8.427 8.427 0 01-1.093.109c-.438.02-.769.034-.994.04a20.01 20.01 0 01-.925 0l-.686-.01v-6.103zm8.359 13.536a2.808 2.808 0 01-.487.796 2.75 2.75 0 01-.785.596c-.324.172-.64.311-.944.417a7.56 7.56 0 01-1.103.279c-.431.079-.809.135-1.134.169-.324.033-.712.059-1.163.079a25.26 25.26 0 01-2.007.02c-.385-.006-.63-.01-.736-.01v-6.719c.106 0 .421-.006.944-.02a53.36 53.36 0 011.282-.019c.332 0 .789.019 1.372.059.583.04 1.074.099 1.471.179.398.079.832.202 1.302.368.471.165.852.367 1.143.606.292.239.537.543.736.914.199.371.298.795.298 1.273 0 .371-.063.708-.189 1.013z" fill="#fff"/><circle cx="181.5" cy="251.5" r="22.5" fill="#4A94DF"/><path d="M172 252.492L182 235l10 17.492-10 6.239-10-6.239z" fill="#fff"/><path d="M182 260.697l9.68-6.436L182 269l-9.908-14.739 9.908 6.436z" fill="#fff"/><path d="M592.763 156V78.182h51.525v13.565h-35.072v18.542h31.652v13.565h-31.652V156h-16.453zm62.591 0V78.182h30.702c5.877 0 10.893 1.051 15.047 3.154 4.18 2.077 7.359 5.028 9.537 8.853 2.204 3.8 3.306 8.27 3.306 13.413 0 5.168-1.115 9.613-3.344 13.337-2.229 3.698-5.459 6.535-9.689 8.511-4.205 1.976-9.297 2.964-15.275 2.964h-20.556v-13.223h17.896c3.141 0 5.75-.431 7.828-1.292 2.077-.861 3.622-2.153 4.635-3.876 1.039-1.722 1.558-3.863 1.558-6.421 0-2.584-.519-4.762-1.558-6.536-1.013-1.773-2.571-3.115-4.673-4.027-2.078-.938-4.699-1.406-7.866-1.406h-11.095V156h-16.453zm42.025-35.413L716.72 156h-18.163l-18.923-35.413h17.745zM725.573 156V78.182h52.436v13.565h-35.983v18.542h33.285v13.565h-33.285v18.581h36.135V156h-52.588zm65.517 0V78.182h52.436v13.565h-35.984v18.542h33.286v13.565h-33.286v18.581h36.136V156H791.09zm93.102 0h-27.586V78.182h27.814c7.828 0 14.566 1.558 20.215 4.674 5.649 3.09 9.993 7.536 13.033 13.337 3.065 5.8 4.597 12.741 4.597 20.822 0 8.106-1.532 15.072-4.597 20.898-3.04 5.827-7.41 10.298-13.109 13.413-5.675 3.116-12.463 4.674-20.367 4.674zm-11.133-14.097h10.449c4.864 0 8.955-.861 12.273-2.584 3.344-1.748 5.852-4.445 7.524-8.093 1.697-3.673 2.546-8.41 2.546-14.211 0-5.75-.849-10.449-2.546-14.097-1.672-3.648-4.167-6.333-7.486-8.055-3.318-1.723-7.409-2.584-12.273-2.584h-10.487v49.624zm132.901-24.812c0 8.486-1.6 15.705-4.82 21.658-3.194 5.953-7.551 10.5-13.073 13.641-5.497 3.116-11.678 4.674-18.543 4.674-6.915 0-13.121-1.571-18.618-4.712-5.497-3.141-9.842-7.688-13.033-13.641-3.192-5.953-4.788-13.159-4.788-21.62 0-8.486 1.596-15.706 4.788-21.658 3.191-5.953 7.536-10.488 13.033-13.604 5.497-3.14 11.703-4.711 18.618-4.711 6.865 0 13.046 1.57 18.543 4.712 5.522 3.115 9.879 7.65 13.073 13.603 3.22 5.952 4.82 13.172 4.82 21.658zm-16.677 0c0-5.497-.823-10.133-2.47-13.907-1.621-3.774-3.914-6.637-6.877-8.587-2.964-1.95-6.435-2.926-10.412-2.926-3.977 0-7.447.975-10.411 2.926-2.964 1.95-5.269 4.813-6.915 8.587-1.622 3.774-2.432 8.41-2.432 13.907s.81 10.132 2.432 13.907c1.646 3.774 3.951 6.637 6.915 8.587 2.964 1.951 6.434 2.926 10.411 2.926 3.977 0 7.448-.975 10.412-2.926 2.963-1.95 5.256-4.813 6.877-8.587 1.647-3.775 2.47-8.41 2.47-13.907zm28.867-38.91h20.29l21.43 52.285h.91l21.43-52.284h20.29V156h-15.95v-50.65h-.65l-20.14 50.27h-10.87l-20.13-50.46h-.65V156h-15.96V78.182zM1158.34 156l-22.26-77.818h17.97l12.88 54.07h.65l14.21-54.07h15.38l14.18 54.184h.68l12.88-54.184h17.98L1220.62 156h-16.04l-14.81-50.878h-.61L1174.38 156h-16.04zm98.93 0h-17.63l26.86-77.818h21.2L1314.53 156h-17.63l-19.49-60.035h-.61L1257.27 156zm-1.1-30.588h41.64v12.843h-41.64v-12.843zm55.22-47.23h18.43l17.75 33.513h.76l17.74-33.513h18.43l-28.38 50.308V156h-16.34v-27.51l-28.39-50.308z" fill="#2F6FB1"/><path d="M620.338 198.5h-4.491c-.266-1.292-.731-2.427-1.395-3.405a9.283 9.283 0 00-2.391-2.463 10.14 10.14 0 00-3.097-1.521 12.364 12.364 0 00-3.549-.507c-2.246 0-4.28.567-6.104 1.702-1.811 1.135-3.253 2.807-4.328 5.017-1.063 2.209-1.594 4.92-1.594 8.132 0 3.211.531 5.922 1.594 8.131 1.075 2.21 2.517 3.882 4.328 5.017 1.824 1.135 3.858 1.702 6.104 1.702 1.231 0 2.415-.169 3.549-.507a10.379 10.379 0 003.097-1.503 9.537 9.537 0 002.391-2.481c.664-.99 1.129-2.125 1.395-3.405h4.491c-.338 1.896-.954 3.592-1.847 5.089a13.92 13.92 0 01-3.333 3.822 14.591 14.591 0 01-4.473 2.372c-1.642.543-3.399.815-5.27.815-3.164 0-5.977-.773-8.44-2.318-2.463-1.546-4.401-3.743-5.813-6.592-1.413-2.85-2.119-6.231-2.119-10.142 0-3.912.706-7.293 2.119-10.143 1.412-2.849 3.35-5.046 5.813-6.592 2.463-1.545 5.276-2.318 8.44-2.318 1.871 0 3.628.272 5.27.815a14.363 14.363 0 014.473 2.391 13.654 13.654 0 013.333 3.803c.893 1.485 1.509 3.181 1.847 5.089zm6.678 25.5v-27.818h4.13v4.202h.289c.508-1.377 1.425-2.494 2.753-3.351 1.328-.857 2.826-1.286 4.492-1.286.314 0 .706.006 1.177.018.471.012.827.03 1.069.055v4.346a13.08 13.08 0 00-.997-.163 9.852 9.852 0 00-1.611-.127c-1.353 0-2.56.284-3.623.852a6.422 6.422 0 00-2.499 2.318c-.604.978-.905 2.095-.905 3.35V224h-4.275zm22.576 10.432a9.408 9.408 0 01-1.938-.181c-.568-.109-.96-.218-1.178-.326l1.087-3.767c1.038.265 1.956.362 2.753.289.797-.072 1.503-.428 2.119-1.068.628-.628 1.201-1.648 1.72-3.061l.797-2.173-10.287-27.963h4.637l7.679 22.167h.29l7.678-22.167h4.637l-11.808 31.875c-.532 1.437-1.19 2.626-1.974 3.568-.785.953-1.697 1.66-2.735 2.119-1.026.458-2.186.688-3.477.688zm25.635 0v-38.25h4.13v4.419h.507c.314-.483.748-1.099 1.304-1.847.567-.761 1.376-1.437 2.427-2.029 1.062-.604 2.499-.905 4.31-.905 2.342 0 4.407.585 6.194 1.756 1.787 1.172 3.181 2.832 4.183 4.981 1.003 2.149 1.504 4.684 1.504 7.606 0 2.946-.501 5.5-1.504 7.661-1.002 2.149-2.39 3.816-4.165 4.999-1.775 1.171-3.821 1.757-6.14 1.757-1.787 0-3.217-.296-4.292-.888-1.074-.604-1.902-1.286-2.481-2.046a27.354 27.354 0 01-1.34-1.92h-.362v14.706h-4.275zm4.202-24.341c0 2.101.308 3.954.924 5.56.615 1.594 1.515 2.843 2.698 3.749 1.183.893 2.632 1.34 4.347 1.34 1.787 0 3.278-.471 4.473-1.413 1.208-.953 2.113-2.233 2.717-3.839.616-1.618.923-3.417.923-5.397 0-1.956-.301-3.719-.905-5.288-.592-1.582-1.491-2.832-2.699-3.749-1.195-.93-2.698-1.395-4.509-1.395-1.739 0-3.2.441-4.383 1.322-1.183.869-2.077 2.089-2.68 3.659-.604 1.557-.906 3.374-.906 5.451zm38.974-13.909v3.622h-14.416v-3.622h14.416zm-10.214-6.665h4.274v26.514c0 1.208.175 2.113.525 2.717.363.591.821.99 1.377 1.195.567.193 1.165.29 1.793.29.471 0 .857-.024 1.159-.072l.724-.145.87 3.839c-.29.109-.695.217-1.214.326-.519.121-1.177.181-1.974.181a8.593 8.593 0 01-3.55-.779c-1.147-.519-2.1-1.31-2.861-2.372-.749-1.063-1.123-2.403-1.123-4.021v-27.673zm27.646 35.063c-2.511 0-4.715-.598-6.61-1.793-1.884-1.196-3.357-2.868-4.419-5.017-1.051-2.149-1.576-4.661-1.576-7.534 0-2.898.525-5.427 1.576-7.589 1.062-2.161 2.535-3.839 4.419-5.034 1.895-1.196 4.099-1.793 6.61-1.793 2.512 0 4.709.597 6.592 1.793 1.896 1.195 3.369 2.873 4.42 5.034 1.062 2.162 1.593 4.691 1.593 7.589 0 2.873-.531 5.385-1.593 7.534-1.051 2.149-2.524 3.821-4.42 5.017-1.883 1.195-4.08 1.793-6.592 1.793zm0-3.84c1.908 0 3.477-.489 4.709-1.467 1.231-.978 2.143-2.264 2.735-3.858.591-1.593.887-3.32.887-5.179 0-1.86-.296-3.592-.887-5.198-.592-1.606-1.504-2.904-2.735-3.894-1.232-.99-2.801-1.485-4.709-1.485-1.908 0-3.477.495-4.709 1.485-1.231.99-2.143 2.288-2.734 3.894-.592 1.606-.888 3.338-.888 5.198 0 1.859.296 3.586.888 5.179.591 1.594 1.503 2.88 2.734 3.858 1.232.978 2.801 1.467 4.709 1.467zm35.574 3.26H766.7l13.62-37.091h4.636L798.575 224h-4.708l-11.084-31.223h-.29L771.409 224zm1.739-14.489h18.98v3.985h-18.98v-3.985zM803.773 224v-27.818h4.13v4.202h.289c.507-1.377 1.425-2.494 2.753-3.351 1.328-.857 2.825-1.286 4.492-1.286.314 0 .706.006 1.177.018.471.012.827.03 1.068.055v4.346c-.145-.036-.477-.09-.996-.163a9.855 9.855 0 00-1.612-.127c-1.352 0-2.559.284-3.622.852a6.422 6.422 0 00-2.499 2.318c-.604.978-.906 2.095-.906 3.35V224h-4.274zm19.555 0v-37.091h4.275v13.692h.362c.314-.483.748-1.099 1.304-1.847.567-.761 1.376-1.437 2.427-2.029 1.062-.604 2.499-.905 4.31-.905 2.342 0 4.407.585 6.194 1.756 1.787 1.172 3.181 2.832 4.183 4.981 1.003 2.149 1.504 4.684 1.504 7.606 0 2.946-.501 5.5-1.504 7.661-1.002 2.149-2.39 3.816-4.165 4.999-1.775 1.171-3.821 1.757-6.14 1.757-1.787 0-3.217-.296-4.292-.888-1.074-.604-1.902-1.286-2.481-2.046a27.354 27.354 0 01-1.34-1.92h-.507V224h-4.13zm4.202-13.909c0 2.101.308 3.954.924 5.56.616 1.594 1.515 2.843 2.698 3.749 1.183.893 2.632 1.34 4.347 1.34 1.787 0 3.278-.471 4.473-1.413 1.208-.953 2.113-2.233 2.717-3.839.616-1.618.923-3.417.923-5.397 0-1.956-.301-3.719-.905-5.288-.592-1.582-1.491-2.832-2.699-3.749-1.195-.93-2.698-1.395-4.509-1.395-1.739 0-3.2.441-4.383 1.322-1.183.869-2.077 2.089-2.68 3.659-.604 1.557-.906 3.374-.906 5.451zM854.425 224v-27.818h4.274V224h-4.274zm2.173-32.455a3.035 3.035 0 01-2.155-.851c-.592-.567-.888-1.249-.888-2.046 0-.797.296-1.479.888-2.047a3.04 3.04 0 012.155-.851c.833 0 1.545.284 2.137.851.604.568.906 1.25.906 2.047 0 .797-.302 1.479-.906 2.046-.592.568-1.304.851-2.137.851zm22.027 4.637v3.622h-14.416v-3.622h14.416zm-10.214-6.665h4.274v26.514c0 1.208.175 2.113.525 2.717.362.591.821.99 1.376 1.195.568.193 1.166.29 1.793.29.471 0 .858-.024 1.16-.072l.724-.145.869 3.839a8.666 8.666 0 01-1.213.326c-.519.121-1.177.181-1.974.181a8.59 8.59 0 01-3.55-.779c-1.147-.519-2.101-1.31-2.861-2.372-.749-1.063-1.123-2.403-1.123-4.021v-27.673zM885.055 224v-27.818h4.129v4.202h.29c.507-1.377 1.424-2.494 2.752-3.351 1.329-.857 2.826-1.286 4.492-1.286.314 0 .706.006 1.177.018.471.012.827.03 1.069.055v4.346c-.145-.036-.477-.09-.996-.163a9.873 9.873 0 00-1.612-.127c-1.353 0-2.56.284-3.623.852a6.422 6.422 0 00-2.499 2.318c-.603.978-.905 2.095-.905 3.35V224h-4.274zm27.161.652c-1.763 0-3.362-.332-4.799-.996-1.437-.676-2.578-1.648-3.423-2.916-.845-1.28-1.268-2.825-1.268-4.636 0-1.594.314-2.886.942-3.876a6.647 6.647 0 012.517-2.354c1.051-.568 2.21-.99 3.478-1.268a42.168 42.168 0 013.857-.688c1.69-.218 3.061-.381 4.111-.489 1.063-.121 1.836-.32 2.318-.598.496-.278.743-.761.743-1.449v-.145c0-1.787-.489-3.175-1.467-4.165-.966-.99-2.433-1.485-4.401-1.485-2.04 0-3.64.446-4.799 1.34-1.159.893-1.974 1.847-2.445 2.861l-4.057-1.449c.724-1.69 1.69-3.006 2.898-3.948a10.846 10.846 0 013.984-1.992 16.56 16.56 0 014.274-.579c.894 0 1.92.108 3.079.326 1.171.205 2.3.633 3.387 1.285 1.099.652 2.01 1.636 2.735 2.953.724 1.316 1.086 3.078 1.086 5.288V224h-4.274v-3.767h-.217c-.29.604-.773 1.25-1.449 1.938s-1.576 1.274-2.699 1.757c-1.123.483-2.493.724-4.111.724zm.652-3.84c1.691 0 3.115-.332 4.274-.996 1.171-.664 2.053-1.521 2.644-2.571.604-1.051.906-2.156.906-3.315v-3.912c-.181.218-.58.417-1.195.598-.604.169-1.304.32-2.101.453a96.85 96.85 0 01-2.3.326c-.737.084-1.334.157-1.793.217a16.334 16.334 0 00-3.115.707c-.954.313-1.727.79-2.318 1.43-.58.628-.87 1.485-.87 2.572 0 1.485.55 2.608 1.648 3.369 1.111.748 2.518 1.122 4.22 1.122zm31.128 14.199c-2.065 0-3.839-.265-5.324-.797-1.486-.519-2.723-1.207-3.713-2.064-.978-.845-1.757-1.751-2.336-2.717l3.404-2.39c.387.507.876 1.086 1.467 1.738.592.664 1.401 1.238 2.427 1.721 1.039.495 2.397.742 4.075.742 2.246 0 4.099-.543 5.56-1.63 1.461-1.086 2.192-2.789 2.192-5.107v-5.65h-.363c-.314.507-.76 1.134-1.34 1.883-.567.737-1.388 1.395-2.463 1.974-1.062.568-2.499.851-4.31.851-2.246 0-4.262-.531-6.049-1.593-1.775-1.063-3.182-2.608-4.22-4.637-1.026-2.028-1.54-4.491-1.54-7.389 0-2.849.501-5.331 1.504-7.444 1.002-2.125 2.396-3.767 4.183-4.926 1.787-1.171 3.852-1.756 6.194-1.756 1.811 0 3.248.301 4.31.905 1.075.592 1.896 1.268 2.464 2.029a29.054 29.054 0 011.34 1.847h.434v-4.419h4.13v28.615c0 2.391-.544 4.334-1.63 5.832-1.075 1.509-2.524 2.614-4.347 3.314-1.811.712-3.827 1.068-6.049 1.068zm-.145-15.285c1.715 0 3.164-.393 4.347-1.177 1.183-.785 2.083-1.914 2.698-3.387.616-1.473.924-3.236.924-5.288 0-2.005-.302-3.774-.906-5.307-.603-1.533-1.497-2.735-2.68-3.604-1.183-.869-2.644-1.304-4.383-1.304-1.811 0-3.32.459-4.527 1.377-1.196.917-2.095 2.149-2.699 3.694-.592 1.546-.887 3.26-.887 5.144 0 1.931.301 3.64.905 5.125.616 1.473 1.521 2.632 2.717 3.477 1.207.833 2.704 1.25 4.491 1.25zm31.658 4.854c-2.681 0-4.993-.592-6.937-1.775-1.931-1.196-3.422-2.862-4.473-4.999-1.038-2.149-1.557-4.648-1.557-7.498 0-2.849.519-5.361 1.557-7.534 1.051-2.185 2.511-3.888 4.383-5.107 1.883-1.232 4.081-1.847 6.592-1.847 1.449 0 2.88.241 4.292.724 1.413.483 2.699 1.268 3.858 2.354 1.159 1.075 2.083 2.5 2.771 4.275.688 1.774 1.032 3.96 1.032 6.556v1.811h-21.443v-3.695h17.097c0-1.569-.314-2.97-.942-4.202a7.097 7.097 0 00-2.644-2.915c-1.135-.713-2.475-1.069-4.021-1.069-1.702 0-3.175.423-4.419 1.268a8.343 8.343 0 00-2.843 3.26 9.577 9.577 0 00-.996 4.31v2.463c0 2.101.362 3.882 1.086 5.343.737 1.449 1.757 2.554 3.061 3.314 1.304.749 2.819 1.123 4.546 1.123 1.123 0 2.137-.157 3.042-.471a6.51 6.51 0 002.373-1.449c.664-.652 1.177-1.461 1.539-2.427l4.13 1.16a9.15 9.15 0 01-2.192 3.694c-1.026 1.051-2.294 1.872-3.803 2.463-1.509.58-3.206.87-5.089.87z" fill="#A3BADC"/></svg>