<svg width="17" height="17" fill="none" xmlns="http://www.w3.org/2000/svg"><path d="M10.625 9.208a.708.708 0 00-.708.708v2.834a.71.71 0 01-.709.708H7.083V2.833c0-.605-.385-1.145-.964-1.346l-.21-.07h3.3a.71.71 0 01.708.708V4.25a.708.708 0 101.416 0V2.125A2.128 2.128 0 009.208 0H1.594c-.027 0-.05.012-.076.016C1.484.013 1.451 0 1.417 0 .635 0 0 .635 0 1.417v12.75c0 .604.385 1.145.965 1.346l4.262 1.421c.145.045.289.066.44.066.78 0 1.416-.636 1.416-1.417v-.708h2.125a2.128 2.128 0 002.125-2.125V9.916a.708.708 0 00-.708-.708z" fill="#FB5070"/><path d="M16.792 6.582L13.96 3.748a.708.708 0 00-1.21.501v2.125H9.917a.709.709 0 000 1.417h2.834v2.125a.71.71 0 001.209.5l2.833-2.833a.708.708 0 000-1.001z" fill="#FB5070"/></svg>