<svg width="475" height="252" fill="none" xmlns="http://www.w3.org/2000/svg"><g clip-path="url(#clip0_76_4051)"><rect width="475" height="252" rx="20" fill="url(#paint0_linear_76_4051)"/><path d="M137.021 91.863c1.985-.39 1.59-1.915 1.538-3.183l-4.706-45.642c-.289-2.522-1.11-3.033-4.055-2.642-7.847 1.055-4.802 3.252-7.682-11.502-.403-1.93-2.508-2.735-3.858-1.455-.293.215-10.381 8.839-12.957 11.549-2.246.92-1.301 2.26-.885 3.383 1.789 4.616 6.466 16.335 8.11 20.212 1.896 4.441 4.554 1.502 8.253-2.176 1.464-1.363 1.506-1.32 2.159.378 3.781 9.569 7.547 19.14 11.297 28.716.405 1.252.643 2.82 2.786 2.362zm16.956-44.723c9.206-2.1 10.35-3.47 10.101-.723-.327 3.602-2.232 27.112-2.167 27.572.104.868.35 1.68 1.626 1.881.257.058.525.07.788.038.263-.033.515-.11.743-.227.227-.117.425-.272.582-.456a1.6 1.6 0 00.331-.613c2.333-4.564 15.111-28.902 18.974-36.571 1.237-2.382.721-3.238-2.19-4.057-3.581-.981-7.092-2.062-10.755-2.984-1.758-.43-1.771-1.121-.99-2.177 1.556-2.544 3.037-5.105 4.593-7.648.243-.355.359-.764.334-1.176a1.936 1.936 0 00-.474-1.14c-.67-.67-1.567-.691-2.587-.525-8.908 1.833-12.048 2.367-13.341 2.685-1.293.319-1.071.398-1.631 1.196-3.295 4.591-4.42 9.94-6.933 22.522-.381 2.022.647 2.938 2.996 2.403z" fill="#fff"/><path d="M64.95 168.811a128.484 128.484 0 0017.543-3.853 2.64 2.64 0 001.227-.555c.34-.282.578-.64.69-1.033.11-.393.088-.805-.065-1.187a2.163 2.163 0 00-.796-.974c-2.053-2.053-4.546-2.766-2.421-4.033 4.052-2.364 8.007-4.826 12.098-7.122 1.252-.699 2.123-1.41 1.654-2.615-.47-1.204-1.771-1.121-3.08-.961-25.05 4.344-29.02.43-25.03 7.983 1.025 1.959-.611 1.367-6.206 2.273-2.428.399-3.68 1.776-2.812 3.463 1.276 2.549 2.9 4.964 4.378 7.462.854.656 1.564 1.394 2.82 1.152zm41.928-40.155a23.439 23.439 0 002.486-1.386c.881-.645 1.545-.914 2.448.046.903.959.369 1.302-.33 1.959-.7.658-2.35 1.722-1.009 2.893 1.34 1.171 2.254-.176 3.238-.776.983-.599 1.338-1.488 2.938-.991 6.133 1.725 13.807-1.115 17.581-5.792.705-.879 1.495-1.869.138-2.689-3.093-1.992-3.386 4.754-13.613 5.691-.522.043-1.253.216-1.491-.36-.237-.576.49-.698.849-.961l4.552-3.334c.946-.693 1.578-1.616.733-2.546-.844-.929-2.17-.587-3.062.018l-5.678 4.16c-.522.382-.802 1.458-1.74.718-2.499-1.991 2.802-3.19 5.895-5.892l2.284-1.673c.979-.717 1.588-1.55.624-2.514-.963-.963-2.056-.671-3.141-.117-1.452.894-2.832 1.832-4.311 2.698-1.48.867-2.695 2.676-3.542 2.112-1.148-.781-.273-2.704.099-4.114 2.159-7.848 7.566-7.527 5.926-9.592-.67-.839-1.604-.615-2.498-.322-1.026.273-1.942.786-2.647 1.479-3.319 3.016-5.135 7.019-5.064 11.162.269 3.408-.145 6.131-3.932 7.913-1.633.882-.035 3.413 2.267 2.21zm181.97-76.298c-.064 1.005-.478 1.97-1.189 2.775-.712.805-1.69 1.414-2.81 1.749a7.044 7.044 0 01-3.483.132c-1.151-.248-2.189-.78-2.983-1.528s-1.309-1.678-1.478-2.673a4.398 4.398 0 01.525-2.919c.512-.907 1.331-1.665 2.352-2.179a6.887 6.887 0 013.386-.706 6.861 6.861 0 012.276.484c.714.287 1.353.69 1.882 1.188a4.964 4.964 0 011.195 1.71c.262.63.372 1.3.327 1.967z" fill="#FEB186"/><path d="M288.096 50.64c-.313.169-3.948-4.207-7.185-10.157-3.238-5.95-5.751-10.735-5.467-10.819.284-.084 3.464 4.46 6.659 10.386 3.195 5.926 6.291 10.422 5.993 10.59z" fill="#FEB186"/><path d="M286.847 24.506c.326.109-1.122 2.705-4.601 4.376-3.479 1.67-6.844 1.442-6.787 1.202.057-.24 2.996-.577 6.12-2.128 3.124-1.55 4.941-3.63 5.268-3.45zm2.297 4.905c.341.072-.965 2.717-4.501 4.135-3.536 1.419-6.773.697-6.631.42.142-.276 2.968-.12 6.049-1.43 3.081-1.31 4.757-3.305 5.083-3.125z" fill="#FEB186"/><path d="M199.725 129.713c-.263 1.088-.902 2.085-1.835 2.866-.933.781-2.119 1.31-3.407 1.52a7.747 7.747 0 01-3.831-.34c-1.209-.431-2.239-1.156-2.961-2.084-.722-.927-1.103-2.015-1.094-3.126.009-1.111.407-2.194 1.144-3.114.736-.919 1.778-1.632 2.994-2.05a7.75 7.75 0 013.835-.296 7.317 7.317 0 012.384.849 6.185 6.185 0 011.817 1.558c.479.615.809 1.304.973 2.028a4.762 4.762 0 01-.019 2.189z" fill="#FE6B21"/><path d="M199.185 127.718c-.582.24-3.876-5.025-6.248-12.021-2.371-6.996-4.004-12.538-3.45-12.718.554-.18 3.308 5.265 5.68 12.165 2.371 6.9 4.558 12.381 4.018 12.574z" fill="#FE6B21"/><path d="M210.858 101.344c.355.337-3.691 3.534-10.28 4.544a18.152 18.152 0 01-8.406-.505c-2.087-.697-2.939-1.731-2.741-1.899.199-.168 1.293.3 3.209.577 2.495.355 5.044.326 7.526-.084 5.921-.89 10.309-3.15 10.692-2.633zm10.165 26.698c-.266 1.085-.906 2.078-1.838 2.855-.933.777-2.117 1.303-3.402 1.51a7.728 7.728 0 01-3.82-.344c-1.204-.432-2.231-1.157-2.95-2.083-.718-.925-1.096-2.011-1.086-3.118.01-1.108.408-2.188 1.143-3.105.735-.916 1.775-1.627 2.987-2.044a7.75 7.75 0 013.826-.294 7.303 7.303 0 012.379.852 6.179 6.179 0 011.812 1.558c.477.615.807 1.304.97 2.027a4.776 4.776 0 01-.021 2.186z" fill="#FE6B21"/><path d="M220.541 126.046c-.568.241-3.862-5.024-6.247-12.02-2.386-6.997-3.991-12.538-3.437-12.718.554-.181 3.309 5.265 5.68 12.165 2.371 6.899 4.587 12.345 4.004 12.573z" fill="#FE6B21"/><path d="M212.321 104.974c.44.337-3.195 3.606-9.329 4.736s-11.061-.456-10.82-.925c.241-.469 4.814.108 10.323-.974 5.51-1.082 9.4-3.294 9.826-2.837z" fill="#FE6B21"/><path d="M323.737 15.467a3.857 3.857 0 01-1.898.429 3.8 3.8 0 01-1.86-.538 2.977 2.977 0 01-1.194-1.321 2.451 2.451 0 01-.124-1.66c.153-.552.497-1.053.987-1.44a3.654 3.654 0 011.764-.731 3.945 3.945 0 011.948.222 3.266 3.266 0 011.473 1.1c.471.646.62 1.423.414 2.162-.205.738-.748 1.377-1.51 1.777z" fill="#fff"/><path d="M324.432 14.62c-.307-.098.846-2.978 3.076-6.184a27.437 27.437 0 014.364-5.55c.307.13-1.154 2.897-3.345 6.054a36.422 36.422 0 01-4.095 5.68z" fill="#fff"/><path d="M340.118 9.021c-1.741-.019-3.442-.446-4.914-1.233-1.473-.787-2.659-1.903-3.429-3.225-.422-.895-.269-1.53-.134-1.53.134 0 .327.52.884 1.22a9.97 9.97 0 002.672 2.327c2.48 1.546 5.017 2.132 4.921 2.441zm-8.133 12.58a3.863 3.863 0 01-1.899.429 3.802 3.802 0 01-1.86-.537c-.543-.331-.959-.791-1.193-1.322a2.452 2.452 0 01-.125-1.66 2.807 2.807 0 01.987-1.439 3.656 3.656 0 011.765-.732 3.938 3.938 0 011.947.222 3.274 3.274 0 011.474 1.101c.465.647.611 1.422.406 2.16-.205.736-.745 1.376-1.502 1.778z" fill="#fff"/><path d="M332.676 20.755c-.308-.098.846-2.994 3.056-6.184a27.138 27.138 0 014.383-5.55c.308.13-1.153 2.897-3.364 6.054a38.127 38.127 0 01-4.075 5.68z" fill="#fff"/><path d="M339.042 10.747a7.913 7.913 0 01-2.842-.135 7.22 7.22 0 01-2.522-1.118c-2.672-1.514-3.691-3.646-3.402-3.727.288-.081 1.653 1.546 4.056 2.897 2.403 1.35 4.748 1.806 4.71 2.083z" fill="#fff"/><path d="M129.516 311.123l-19.074-6.736-26.598-9.397c-3.552-1.256-7.093-2.627-10.678-3.823l23.03-13.723 23.293-13.875-.523-2.521-11.984 7.139-35.647 21.238-1.436.853a1.079 1.079 0 00-.376.184 1.015 1.015 0 00-.27.307 1.194 1.194 0 00-.12 1.153c.079.188.204.354.366.487.161.133.354.228.562.276l.656.231 7.896 2.789 23.654 8.352 27.832 9.827-.29-1.376-.293-1.385zM557.418 34.279a21816.15 21816.15 0 00-22.872-3.867c-10.37-1.753-20.74-3.5-31.109-5.245l-36.751-6.186-40.298-6.778-41.254-6.938-39.811-6.69-35.941-6.033-29.509-4.955-20.923-3.513c-3.259-.548-6.515-1.12-9.779-1.641l-.415-.072a1.367 1.367 0 00-.967.12 1.232 1.232 0 00-.603.718c-1.676 10.134-2.194 20.494-2.958 30.709-1.286 17.197-2.353 34.393-3.4 51.578a8949.2 8949.2 0 00-3.243 57.287c-.688 12.765-1.356 25.531-2.003 38.298l.502.132c.678.182 1.347.386 2.011.605.555-10.782 1.115-21.566 1.682-32.352 1.01-18.869 2.066-37.737 3.17-56.602 1.046-17.728 2.134-35.458 3.4-53.173.811-11.3 1.488-22.687 3.005-33.942.044-.344.078-.584.115-.832h.06l5.231.877 18.425 3.093 27.603 4.645 34.609 5.813L374.479 5.9l41.137 6.916 40.757 6.854a94843.33 94843.33 0 0137.8 6.36c10.918 1.838 21.837 3.678 32.755 5.52l25.107 4.241 3.623.614-.155 1.04-.588 4.009-2.532 17.246-3.748 25.51-4.571 31.126-5.006 34.091-5.056 34.414-4.707 32.084-3.981 27.107-2.861 19.487-1.232 8.379-18.799-5.191-10.903-3.009-34.369-9.49-5.322-1.474-25.393-7.012-39.209-10.819a39.629 39.629 0 01-1.546 2.071l50.835 14.035 55.461 15.315 28.003 7.731-11.301 11.834-30.49 31.922-36.877 38.617-31.881 33.367-10.427 10.917-3.285 3.44c-.392.412-1.093.938-1.501 1.459l-7.901-2.791-23.654-8.353-34.8-12.283-42.63-15.059-46.721-16.512L231 346.96l-1.248.838-1.242.832 44.851 15.841 43.972 15.531 37.154 13.122 26.611 9.399c3.863 1.363 7.71 2.867 11.62 4.13l-6.211 8.903-1.018 1.461a.975.975 0 00.047 1.268c.157.177.36.313.589.396.229.083.476.11.719.078.113-.019.222-.053.324-.101.214-.096.395-.245.523-.432l.244-.349a5599.26 5599.26 0 016.815-9.773l.931-1.336 12.585-13.175 30.49-31.937 36.877-38.617 31.871-33.367 10.427-10.92c.986-1.031 2.027-2.048 3.034-3.085a39.262 39.262 0 001.969-2.152.982.982 0 00.391-.317.906.906 0 00.172-.457l.931-6.338 2.534-17.249 3.745-25.51 4.572-31.126 5.008-34.092 5.053-34.413 4.708-32.084 3.98-27.107 2.861-19.484c.454-3.068.904-6.135 1.353-9.2l.06-.404a1.167 1.167 0 00-.136-.892 1.3 1.3 0 00-.748-.564z" fill="#29175F"/><path d="M400.142 239.461l-7.378 5.562-20.076 15.133-2.683 2.022a1.342 1.342 0 00-.51-.26 418.27 418.27 0 01-49.258-16.679l-2.319-.982 17.855-11.974 11.018-7.392.476-.32c1.324-.887.052-2.967-1.287-2.068l-7.553 5.065-20.551 13.782-30.399 20.391-37.091 24.869-40.629 27.25-41.014 27.514-38.247 25.643-32.326 21.681-23.25 15.592-11.022 7.39-.473.319c-1.326.887-.053 2.968 1.286 2.069l7.551-5.063 11.374-7.628c3.547 2.046 7.192 3.955 10.84 5.832a450 450 0 0030.961 14.475 478.943 478.943 0 0021.616 8.551l-11.272 8.498-10.678 8.048-.463.351c-1.282.963.523 2.651 1.802 1.693l7.378-5.559 16.194-12.208c.198-.073.368-.202.486-.368l3.4-2.558 29.69-22.38 36.22-27.301 39.45-29.726 40.031-30.176 37.321-28.141 31.534-23.768 22.656-17.079 10.679-8.051.466-.349c1.278-.97-.537-2.655-1.805-1.7zM158.438 421.654l-9.107 6.864a471.865 471.865 0 01-38.49-15.986 402.259 402.259 0 01-22.848-11.509 491.3 491.3 0 01-2.092-1.162l6.918-4.641 30.398-20.39 16.459-11.041c3.188 1.892 6.467 3.653 9.75 5.39a399.675 399.675 0 0027.806 13.347 424.94 424.94 0 0021.527 8.695h.037l-8.819 6.647-31.539 23.786zm166.685-125.645a1.246 1.246 0 00-.693-.545 106.743 106.743 0 01-16.702-7.068 1.346 1.346 0 00-.956-.107c-.321.083-.595.28-.763.55-.168.27-.218.591-.137.895.08.304.283.566.567.731a108.853 108.853 0 0016.647 7.08l-16.307 12.283-35.373 26.672a1.297 1.297 0 00-.547-.302 114.79 114.79 0 01-15.851-5.468c-1.475-.659-2.773 1.407-1.287 2.068a115.34 115.34 0 0015.412 5.405l-1.804 1.361-40.031 30.195-27.017 20.363a1.188 1.188 0 00-.222-.725 1.309 1.309 0 00-.628-.471 416.373 416.373 0 01-35.221-15.003 357.311 357.311 0 01-20.483-10.601c-.602-.336-1.198-.687-1.797-1.031l18.373-12.323 40.629-27.259 41.017-27.515 38.247-25.643 32.326-21.678 3.073-2.064c.098.088.21.161.332.216a344.526 344.526 0 0033.859 12.53c5.928 1.911 11.9 3.7 17.915 5.367l-24.702 18.625-17.876 13.462z" fill="#1D1D1B"/><path d="M322.363 237.169l-.345-.442a37.832 37.832 0 01-3.345-5.159l-.099.575a1.052 1.052 0 01-.055.309l-.1.565-4.501 25.611-3.591 20.435-.068.39-.068.393a18.39 18.39 0 002.004.133h.337c.821-.029 2.532-.091 7.794-28.726a897.104 897.104 0 002.39-13.622l-.028-.035-.325-.427zm69.234-23.218c-1.013-5.615-3.484-10.908-7.195-15.411a34.566 34.566 0 00-2.652-2.806c-.353-.336-.695-.685-1.062-1.009a1.327 1.327 0 00-.571-.291 1.4 1.4 0 00-.65.004 1.334 1.334 0 00-.568.298c-.159.142-.278.32-.345.517a73.163 73.163 0 01-4.357 8.628 36.83 36.83 0 01-6.604 8.613 8.44 8.44 0 01-3.462 2.391 8.95 8.95 0 01-4.266.483 8.962 8.962 0 01-4.104-2.648 19.735 19.735 0 01-4.205-6.822 19.954 19.954 0 01-.908-3.29v-.017a65.657 65.657 0 01-.196-1.98 36.62 36.62 0 01-.141-2.83c0-.359 0-.722.031-1.079l-1.307.737c-.438.246-.864.474-1.279.683a100.65 100.65 0 01-16.155 6.633 86.193 86.193 0 01-10.164 2.673 14.679 14.679 0 01-2.764 3.44c-.463.439-.944.867-1.436 1.289l-.382.33c-.055.324-.112.648-.178.982l.524-.268 2.845-1.474a1.386 1.386 0 011.394.119c.197.142.346.333.432.552.085.219.102.456.049.683l-.442 2.506-.028.165-.419 2.38c-.225 1.292-.452 2.584-.68 3.874l-.068.393-.071.396-.758 4.316-.063.364c.185.143.324.331.403.543l.089.221.112.268.034.083.021.042c.356.764.735 1.518 1.146 2.258.437.786.913 1.555 1.404 2.316.11.17.225.337.338.492.112.154.225.346.345.516 2.509 3.667 5.698 6.882 9.415 9.492a34.13 34.13 0 002.84 1.762c7.286 3.894 15.708 5.495 24.033 4.569a1.102 1.102 0 01.795.189c.112.08.205.18.275.295.07.115.114.242.13.373 2.75-.335 5.44-1.01 8.001-2.007 6.089-2.561 11.438-6.452 15.601-11.35.444-.511.88-1.033 1.307-1.567a44.729 44.729 0 001.546-2.071c2.644-3.581 4.322-7.712 4.891-12.038.026-.263.044-.528.06-.793a30.274 30.274 0 00-.581-7.117z" fill="#FEB186"/><path d="M316.364 112.593c.49 1.774 1.3 3.455 2.393 4.972a7.515 7.515 0 002.986 2.806 8.143 8.143 0 004.11.914c3.028-.647 5.694-2.322 7.485-4.705a47.31 47.31 0 007.796-11.888c.069-.151.172-.287.301-.398a57.834 57.834 0 00-4.64-1.449c-3.114-.5-6.224-1.026-9.329-1.577a5.966 5.966 0 01-1.012 3.085c-2.769 3.622-6.788 6.231-11.374 7.383a1.37 1.37 0 01.795.226c.232.155.404.377.489.631zm-19.95-5.945c.087 1.255.31 2.498.667 3.71 1.104 4.07 4.119 9.254 9.468 8.392a11.759 11.759 0 004.538-2.413 10.865 10.865 0 002.947-4.041.972.972 0 01.421-.423 10.033 10.033 0 01-5.869-.059c-2.953-1.309-3.444-6.434-3.47-9.446a61.209 61.209 0 00-4.339 1.145 45.923 45.923 0 00-5.328 2.032c.268.058.508.198.682.397.175.2.274.448.283.706z" fill="#FE6B21"/><path d="M372.054 137.408a48.82 48.82 0 00-6.133-13.907.995.995 0 01-.207-.661 1 1 0 01.281-.637c-4.685-5.877-10.533-10.848-17.225-14.641a50.466 50.466 0 00-5.383-2.538c.098.29.077.603-.057.879a54.199 54.199 0 01-3.118 5.599 38.907 38.907 0 01-6.873 8.544 10.28 10.28 0 01-4.355 3.01 10.919 10.919 0 01-5.378.525 10.625 10.625 0 01-4.92-2.106 9.706 9.706 0 01-3.108-4.155c-.523 7.09-1.098 14.184-1.43 21.287-.071 1.538-2.616 1.54-2.55 0 .083-1.823.201-3.646.321-5.466.33-5.096.687-10.189 1.073-15.281a10.539 10.539 0 01-3.326 2.382 11.138 11.138 0 01-4.05.984 10.432 10.432 0 01-4.338-.999 9.783 9.783 0 01-3.432-2.686c-2.456-3.177-3.846-6.97-3.991-10.893a1.195 1.195 0 01.044-.381c-.533.262-1.061.535-1.584.818-8.201 4.683-15.153 11.064-20.327 18.656a83.459 83.459 0 00-10.553 20.636 105.04 105.04 0 00-3.803 13.824c-.261 1.26-2.092 9.294-2.422 13.399.186.231.372.459.55.693.68.894 1.311 1.818 1.893 2.771l2.092 1.009a38.667 38.667 0 013.965-2.142c7.507-3.45 16.063-4.321 24.182-2.461a40.313 40.313 0 0113.974 6.021c.36-.362.795-.651 1.278-.849a4.084 4.084 0 011.531-.306c3.442.037 6.761 1.209 9.376 3.312l-.714-1.811a1.138 1.138 0 01.123-.908c.166-.276.441-.479.766-.566 1.74-.441 3.45-.983 5.118-1.624a64.792 64.792 0 009.839-4.64 47.626 47.626 0 0010.833-8.471c3.563-3.76 6.178-8.225 7.653-13.065a36.7 36.7 0 00.274-18.552c-.337-1.509 2.124-2.148 2.459-.639a38.515 38.515 0 01-.816 21.486c-3.705 9.307-10.832 17.063-20.094 21.864a60.405 60.405 0 01-13.252 5.597l2.226 5.65a21.215 21.215 0 013.415 6.697 25.786 25.786 0 011.018 5.405c.031.395.049.793.062 1.191.013.398 0 .801 0 1.202a23.57 23.57 0 01-.303 3.496c-.042.245-.102.491-.157.737 3.476-.86 6.931-1.72 10.339-2.865a99.558 99.558 0 0010.461-4.194 86.4 86.4 0 003.384-1.673c.5-.262.986-.54 1.481-.813.327-.182.659-.356.983-.543l.327-.186a74.243 74.243 0 004.901-3.093c7.607-4.988 13.421-12.03 16.67-20.192 3.94-10.892 4.291-22.648 1.007-33.73zm-84.792-16.121c-.291.983-.555 1.965-.814 2.948a202.745 202.745 0 00-6.617 42.454c-.068 1.538-2.615 1.54-2.552 0 .227-5.127.688-10.239 1.342-15.335a196.722 196.722 0 016.18-30.708c.09-.307.307-.567.601-.724.295-.156.644-.196.97-.111.327.085.604.288.771.565.166.277.209.605.119.911zm22.521 16.384a1.24 1.24 0 01-.374.847c-.179.167-.406.28-.653.326a1.349 1.349 0 01-.736-.069 1.253 1.253 0 01-.572-.44 1.145 1.145 0 01-.215-.664c.023-.737.065-1.474.104-2.211.011-.315.144-.616.374-.845.179-.168.406-.282.653-.328.247-.047.504-.023.737.067.233.091.432.244.573.441.14.196.215.428.216.665-.039.744-.081 1.479-.107 2.211zm0-9.581a1.244 1.244 0 01-.374.847 1.335 1.335 0 01-1.804-.001 1.163 1.163 0 01-.372-.846c.023-.737.065-1.474.104-2.211.012-.316.144-.617.374-.848a1.3 1.3 0 01.654-.328c.247-.046.504-.022.737.068.233.091.432.245.573.442.14.197.215.429.215.666-.039.739-.081 1.476-.107 2.211z" fill="#FE6B21"/><path d="M316.306 46.837c-17.764 2.14-19.725 15.175-19.843 16.096a100.48 100.48 0 0111.698-.204 70.086 70.086 0 0122.534 4.395 30.499 30.499 0 017.585 3.973c.116.08.214.18.286.296a.934.934 0 01-.1 1.131c.855.472 1.676.963 2.455 1.474 3.529-14.118-6.616-29.328-24.615-27.16zm-.383 166.399c-.318.244-.639.482-.965.713l-.351.245a26.565 26.565 0 01-2.429 1.489c-.492.27-.995.521-1.509.752-2.077.926-5.412 1.899-6.821-.524a4.109 4.109 0 01-.489-2.663 7.525 7.525 0 01.732-2.294 16.757 16.757 0 011.88-2.909c.278-.359.57-.71.866-1.059-2.783.813-11.16 3.027-10.315-2.23.673-2.324 2.25-4.326 4.42-5.609l-.17.02c-1.5.194-3.025.135-4.504-.172a6.891 6.891 0 01-1.477 4.118 7.633 7.633 0 01-3.735 2.564 19.55 19.55 0 01-2.877.879 28.932 28.932 0 01-6.277.639l.33.214c.497.314.988.636 1.464.983 3.523 2.171 6.056 5.501 7.101 9.335.701 3.754-.672 8.552-4.969 9.731-2.966.61-6.057.391-8.892-.629l-.037.084-2.579 5.955a1.246 1.246 0 01-.606.713 1.379 1.379 0 01-.963.124 1.268 1.268 0 01-.769-.564 1.142 1.142 0 01-.123-.91l.374-.86 2.31-5.336-.66-.245a65.546 65.546 0 01-2.722-1.081l-2.579 5.957a1.248 1.248 0 01-.607.713 1.387 1.387 0 01-.962.123 1.302 1.302 0 01-.445-.21 1.217 1.217 0 01-.325-.354 1.135 1.135 0 01-.119-.91l.371-.863 2.354-5.427-.099-.039-6.343-2.422a1.297 1.297 0 01-.76-.569 1.167 1.167 0 01-.132-.905 1.22 1.22 0 01.601-.723 1.35 1.35 0 01.969-.115l.915.349 2.547.983 1.258-2.904 5.391-12.478.967-2.23 2.289-5.287 3.138-7.252-3.185-1.216a1.294 1.294 0 01-.76-.57 1.16 1.16 0 01-.132-.904 1.22 1.22 0 01.601-.723c.294-.157.642-.198.968-.115l.915.349.249.096 5.529 2.112.031-.071 2.579-5.955a1.6 1.6 0 01.345-.508c.153-.154.348-.266.564-.324.215-.058.443-.06.66-.006.326.085.603.288.769.565.167.276.21.603.12.909l-.371.86-2.54 5.869a47.47 47.47 0 013.322 1.457l.29-.673 2.579-5.958c.097-.302.314-.558.606-.713.292-.156.637-.201.963-.124.326.085.602.288.769.564.167.276.211.603.123.91l-.371.86-2.582 5.957c-.05.117-.114.228-.191.332.654.376 1.282.792 1.878 1.245.291.221.568.455.829.695.04-.078.087-.154.131-.23a9.099 9.099 0 013.099-2.754 42.131 42.131 0 019.881-3.978 20.462 20.462 0 01-.473-.319 17.742 17.742 0 01-3.968-3.751 4.895 4.895 0 01-1.099-1.782 4.649 4.649 0 01-.232-2.048c.076-.258.206-.5.382-.71-4.188-2.858-8.937-4.905-13.974-6.024-8.123-1.851-16.679-.969-24.182 2.491a38.475 38.475 0 00-3.965 2.142l-2.092-1.01a34.574 34.574 0 00-1.893-2.771c-.178-.233-.364-.462-.55-.693-4.353-5.426-10.305-9.533-17.12-11.811a38.577 38.577 0 00-2.014-.605l-.502-.132a36.12 36.12 0 00-17.842-.049c-7.614 1.923-14.302 6.23-18.956 12.209-3.642 4.832-5.906 10.459-6.575 16.346-.669 5.887.278 11.836 2.751 17.281a41.773 41.773 0 00-5.275 3.111c-2.359-3.834-5.449-7.227-9.114-10.011-4.423-3.302-9.525-5.71-14.985-7.073a43.598 43.598 0 00-16.745-.847c-5.584.804-10.931 2.683-15.706 5.519-4.776 2.836-8.875 6.568-12.043 10.962-3.998 5.775-6.176 12.495-6.282 19.384-.105 6.888 1.866 13.664 5.686 19.545a248 248 0 013.855 1.177 34.983 34.983 0 01-5.212-9.663 32.387 32.387 0 01.557-22.498c2.87-7.228 8.246-13.338 15.263-17.347 5.944-3.321 12.722-5.097 19.639-5.144 6.665-.086 13.235 1.486 19.045 4.555 5.81 3.07 10.652 7.527 14.036 12.922a38.384 38.384 0 00-6.104 6.021 35.555 35.555 0 00-5.466 9.508 35.462 35.462 0 00-1.135 3.513c-2.307 8.814-1.365 18.102 2.673 26.348a36.355 36.355 0 01-2.647 1.786 37.246 37.246 0 01-6.585 3.169l1.883.56 1.809.538a38.278 38.278 0 006.696-3.872 38.681 38.681 0 005.586 7.528l10.781 3.213 8.024 2.388c1.36-.818 2.877-1.474 4.294-2.211l9.617-4.975 29.352-15.185 7.804-4.036a34.47 34.47 0 00-.554-12.863 36.795 36.795 0 00-.542-2.037c3.564 3.791 8.012 6.758 12.996 8.67l.084.029 13.997-7.24 28.102-14.538 3.978-2.057 2.278-1.179.871-.449.432-.224.784-.405c.066-.325.123-.649.178-.983-.309.26-.621.513-.936.759zm-90.05 25.582a27.958 27.958 0 01-10.461 1.67c.784.479 1.569.983 2.307 1.501 3.823 2.354 6.579 5.957 7.733 10.112.785 4.056-.69 9.286-5.338 10.564-3.27.67-6.678.419-9.797-.72l-.086.201-2.825 6.525a1.245 1.245 0 01-.606.714 1.379 1.379 0 01-.963.124 1.272 1.272 0 01-.769-.564 1.143 1.143 0 01-.123-.91l.408-.943 2.571-5.941-.902-.326a74.1 74.1 0 01-3.026-1.204l-.053.123-2.827 6.527a1.246 1.246 0 01-.606.713 1.384 1.384 0 01-.963.122 1.265 1.265 0 01-.769-.564 1.133 1.133 0 01-.12-.91l.408-.941 2.615-6.038-.206-.081-6.947-2.653a1.294 1.294 0 01-.76-.57 1.164 1.164 0 01-.132-.904 1.22 1.22 0 01.601-.723 1.35 1.35 0 01.969-.113l1.004.384 2.877 1.103 1.443-3.332c2.684-6.204 5.369-12.406 8.056-18.607a7149.36 7149.36 0 014.108-9.49l.479-1.105.303-.703-3.617-1.381a1.294 1.294 0 01-.744-.551 1.163 1.163 0 01-.153-.878v-.045a1.22 1.22 0 01.601-.722c.294-.157.642-.198.969-.115l1.004.383 6.428 2.457.084-.194 2.825-6.528a1.24 1.24 0 01.606-.712c.293-.156.637-.2.963-.123.174.04.335.12.468.233.196.143.341.337.417.559.075.221.078.459.007.682l-.408.941-.785 1.788-2.05 4.732c1.095.432 2.17.898 3.224 1.398.186.088.38.169.563.26l.073.037.105-.246.261-.624 2.827-6.527c.097-.302.314-.558.606-.714.293-.156.638-.2.964-.124.326.085.602.288.77.564.167.276.21.604.121.91l-.408.944-2.445 5.65-.379.877a1.752 1.752 0 01-.202.344l-.062.083c.554.32 1.109.666 1.639 1.042a6.985 6.985 0 012.977 2.909 6.42 6.42 0 01.689 3.982 6.611 6.611 0 01-1.842 3.644 7.336 7.336 0 01-3.72 2.016l.021.008zm8.702-30.525a44.262 44.262 0 00-13.927-5.004c-.393-.071-.785-.125-1.185-.184l.709-2.368c.755-2.529 1.511-5.056 2.27-7.582.078.038.161.069.246.091a28.906 28.906 0 016.088 2.363c.814.431 1.595.914 2.338 1.445a13.332 13.332 0 013.555 3.628 7.15 7.15 0 011.13 4.373 4.978 4.978 0 01-1.224 3.238zm-11.458-17.4c.941-3.14 1.881-6.281 2.819-9.422l.8-2.673c1.42.29 2.825.656 4.203 1.071 1.23.351 2.437.769 3.615 1.251.898.368 1.734.857 2.482 1.452.405.322.758.699 1.046 1.118.338.735.393 1.558.154 2.328a3.458 3.458 0 01-1.462 1.885c-.282.24-.587.454-.913.639-.56.316-1.147.59-1.755.818a24.105 24.105 0 01-5.806 1.267 38.508 38.508 0 01-5.183.266zm36.306 7.709a25.44 25.44 0 01-.523 2.365 27.8 27.8 0 01-3.065 7.238 29.812 29.812 0 01-3.175 4.326 32.924 32.924 0 01-6.392 5.474 35.212 35.212 0 00-1.415-1.624 41.473 41.473 0 00-8.126-6.798 8.66 8.66 0 001.6-3.927 8.472 8.472 0 00-.478-4.18c-.905-2.273-2.474-4.261-4.527-5.734a22.4 22.4 0 00-2.234-1.508c-.277-.165-.552-.33-.831-.492a26.907 26.907 0 00-1.384-.71 26.789 26.789 0 005.118-1.076 17.98 17.98 0 002.631-1.088c.121-.064.262-.113.369-.177 1.362-.623 2.472-1.643 3.165-2.909a6.236 6.236 0 00.677-4.11 6.638 6.638 0 00-1.413-2.297 7.15 7.15 0 00-2.248-1.606c-.425-.235-.862-.45-1.308-.646a1.01 1.01 0 00.073-.138l1.517-5.061.194-.653.245-.816a1.14 1.14 0 00.001-.605 1.198 1.198 0 00-.307-.532 1.134 1.134 0 00-.585-.337 1.384 1.384 0 00-.963.124c-.293.156-.51.412-.607.714l-.523 1.702-1.2 4.01-.196.663a41.425 41.425 0 00-2.997-.956l1.621-5.419.259-.806a1.127 1.127 0 00-.091-.938 1.203 1.203 0 00-.328-.369 1.308 1.308 0 00-.456-.218 1.335 1.335 0 00-.994.126 1.248 1.248 0 00-.378.325c-.101.131-.173.28-.211.438l-1.711 5.712-.016.083-5.311-1.403-.871-.228a1.335 1.335 0 00-.999.085 1.265 1.265 0 00-.393.308 1.159 1.159 0 00-.267.909c.024.16.081.314.17.453.088.139.206.26.345.355.14.096.298.163.466.199l3.076.813-7.483 25.002-.041.14-.165-.017c-6.667-.59-13.383.453-19.492 3.026-3.304-7.254-3.6-15.407-.831-22.856 2.77-7.449 8.405-13.656 15.798-17.401 6.613-3.154 14.185-4.058 21.428-2.56.609.13 1.211.292 1.812.457.155.042.312.074.463.118.693.199 1.376.425 2.051.668 4.661 1.677 8.876 4.29 12.349 7.657 3.395 3.302 5.992 7.252 7.616 11.581a29.03 29.03 0 011.491 15.124z" fill="#fff"/><path d="M315.923 213.236c-.318.244-.639.482-.965.713l-.351.245a26.565 26.565 0 01-2.429 1.489c-.492.27-.995.521-1.509.752-2.077.926-5.412 1.899-6.821-.524a4.109 4.109 0 01-.489-2.663 7.525 7.525 0 01.732-2.294 16.757 16.757 0 011.88-2.909c.278-.359.57-.71.866-1.059-2.783.813-11.16 3.027-10.315-2.23.673-2.324 2.25-4.326 4.42-5.609l-.17.02c-1.5.194-3.025.135-4.504-.172a6.891 6.891 0 01-1.477 4.118 7.633 7.633 0 01-3.735 2.564 19.55 19.55 0 01-2.877.879 28.932 28.932 0 01-6.277.639l.33.214c.497.314.988.636 1.464.983 3.523 2.171 6.056 5.501 7.101 9.335.701 3.754-.672 8.552-4.969 9.731-2.966.61-6.057.391-8.892-.629l-.037.084-2.579 5.955a1.246 1.246 0 01-.606.713 1.379 1.379 0 01-.963.124 1.268 1.268 0 01-.769-.564 1.142 1.142 0 01-.123-.91l.374-.86 2.31-5.336-.66-.245a65.546 65.546 0 01-2.722-1.081l-2.579 5.957a1.248 1.248 0 01-.607.713 1.387 1.387 0 01-.962.123 1.302 1.302 0 01-.445-.21 1.217 1.217 0 01-.325-.354 1.135 1.135 0 01-.119-.91l.371-.863 2.354-5.427-.099-.039-6.343-2.422a1.297 1.297 0 01-.76-.569 1.167 1.167 0 01-.132-.905 1.22 1.22 0 01.601-.723 1.35 1.35 0 01.969-.115l.915.349 2.547.983 1.258-2.904 5.391-12.478.967-2.23 2.289-5.287 3.138-7.252-3.185-1.216a1.294 1.294 0 01-.76-.57 1.16 1.16 0 01-.132-.904 1.22 1.22 0 01.601-.723c.294-.157.642-.198.968-.115l.915.349.249.096 5.529 2.112.031-.071 2.579-5.955a1.6 1.6 0 01.345-.508c.153-.154.348-.266.564-.324.215-.058.443-.06.66-.006.326.085.603.288.769.565.167.276.21.603.12.909l-.371.86-2.54 5.869a47.47 47.47 0 013.322 1.457l.29-.673 2.579-5.958c.097-.302.314-.558.606-.713.292-.156.637-.201.963-.124.326.085.602.288.769.564.167.276.211.603.123.91l-.371.86-2.582 5.957c-.05.117-.114.228-.191.332.654.376 1.282.792 1.878 1.245.291.221.568.455.829.695.04-.078.087-.154.131-.23a9.099 9.099 0 013.099-2.754 42.131 42.131 0 019.881-3.978 20.462 20.462 0 01-.473-.319 17.742 17.742 0 01-3.968-3.751 4.895 4.895 0 01-1.099-1.782 4.649 4.649 0 01-.232-2.048c.076-.258.206-.5.382-.71-4.188-2.858-8.937-4.905-13.974-6.024-8.123-1.851-16.679-.969-24.182 2.491a38.475 38.475 0 00-3.965 2.142l-2.092-1.01a34.574 34.574 0 00-1.893-2.771c-.178-.233-.364-.462-.55-.693-4.353-5.426-10.305-9.533-17.12-11.811a38.577 38.577 0 00-2.014-.605l-.502-.132a36.12 36.12 0 00-17.842-.049c-7.614 1.923-14.302 6.23-18.956 12.209-3.642 4.832-5.906 10.459-6.575 16.346-.669 5.887.278 11.836 2.751 17.281a41.773 41.773 0 00-5.275 3.111c-2.359-3.834-5.449-7.227-9.114-10.011-4.423-3.302-9.525-5.71-14.985-7.073a43.598 43.598 0 00-16.745-.847c-5.584.804-10.931 2.683-15.706 5.519-4.776 2.836-8.875 6.568-12.043 10.962-3.998 5.775-6.176 12.495-6.282 19.384-.105 6.888 1.866 13.664 5.686 19.545a248 248 0 013.855 1.177 34.983 34.983 0 01-5.212-9.663 32.387 32.387 0 01.557-22.498c2.87-7.228 8.246-13.338 15.263-17.347 5.944-3.321 12.722-5.097 19.639-5.144 6.665-.086 13.235 1.486 19.045 4.555 5.81 3.07 10.652 7.527 14.036 12.922a38.384 38.384 0 00-6.104 6.021 35.555 35.555 0 00-5.466 9.508 35.462 35.462 0 00-1.135 3.513c-2.307 8.814-1.365 18.102 2.673 26.348a36.355 36.355 0 01-2.647 1.786 37.246 37.246 0 01-6.585 3.169l1.883.56 1.809.538a38.278 38.278 0 006.696-3.872 38.681 38.681 0 005.586 7.528l10.781 3.213 8.024 2.388c1.36-.818 2.877-1.474 4.294-2.211l9.617-4.975 29.352-15.185 7.804-4.036a34.47 34.47 0 00-.554-12.863 36.795 36.795 0 00-.542-2.037c3.564 3.791 8.012 6.758 12.996 8.67l.084.029 13.997-7.24 28.102-14.538 3.978-2.057 2.278-1.179.871-.449.432-.224.784-.405c.066-.325.123-.649.178-.983-.309.26-.621.513-.936.759z" fill="#fff"/><path d="M225.576 227.777a28.022 28.022 0 00-3.036-1.685 43.537 43.537 0 00-1.876-.86 51.597 51.597 0 00-5.097-1.877l-.034.074-.479 1.103-.831 1.924-4.873 11.259c.145-.02.292-.02.437 0-.565-.077 0 0 .23.022a51.76 51.76 0 005.893.277c3.185.115 6.36-.407 9.316-1.53 2.191-.983 4.542-3.332 3.473-5.651a8.203 8.203 0 00-3.123-3.056zm-14.936 12.93a33.247 33.247 0 00-1.308-.587l-.382-.158c-.112-.046.034 0 .131.05a1.523 1.523 0 01-.562-.379l-2.354 5.43-4.65 10.745a55.75 55.75 0 007.04 3.027c3.306 1.157 7.846 2.687 11.335 1.38a5.213 5.213 0 001.927-1.535c.501-.65.827-1.404.95-2.199a8.536 8.536 0 00-.353-5.65c-1.669-3.323-4.371-6.093-7.749-7.945a39.082 39.082 0 00-4.025-2.179z" fill="#fff"/><path d="M317.086 215.985l-1.209.624-.094.049h-.021l-1.281.664-5.689 2.948-23.242 12.023-16.077 8.316-12.203 6.313-3.612 1.87-23.428 12.136-19.754 10.22-5.231 2.702c-.348.179-.688.386-1.046.54.026 1.106 0 2.211-.029 3.327-.055 1.663-.144 3.329-.183 4.98l-.426 18.027-.489 20.746-.369 15.507-.029 1.268v.366l-.021.894-.149 6.24a1.17 1.17 0 01-.393.812 1.317 1.317 0 01-.882.333 1.32 1.32 0 01-.882-.333 1.17 1.17 0 01-.393-.812v-.12c-.081-2.327.055-4.683.147-7.019.018-.42.031-.838.044-1.256l.016-.439.018-.828.408-17.197.489-20.749.406-17.138.094-3.97.068-2.786c-1.243-.356-2.472-.766-3.704-1.135l-9.483-2.828-.811-.245-19.162-5.702-2.053-.612-2.192-.651-5.788-1.72-23.504-6.996-3.175-.944-1.831-.543-2.642-.786-2.304-.685-2.155-.641-3.677-1.096c.12.619.23 1.228.358 1.85l1.685 7.974.042.192.523 2.52.661 3.14 6.479 2.103c10.942 3.551 21.889 7.086 32.841 10.606 8.704 2.793 17.384 5.746 26.192 8.234.326.086.602.289.768.565.166.276.209.602.12.908-.09.306-.305.566-.598.723a1.35 1.35 0 01-.967.116c-3.902-1.103-7.76-2.366-11.62-3.587a4310.518 4310.518 0 01-34.541-11.084 9558.906 9558.906 0 01-18.098-5.869l3.282 15.551 5.89 27.895.131.617.292 1.381.291 1.375 2.798 13.266 1.36 6.442a6255.9 6255.9 0 011.862 8.817l.06.282 6.8 2.484 7.062 2.577 25.915 9.466 20.139 7.355c1.177-.983 2.667-1.761 3.923-2.606l8.842-5.933 1.428-.958 12.554-8.432 1.242-.83 1.248-.84 10.2-6.84 31.031-20.82 25.523-17.126 10.156-6.815c.114-1.019.299-2.03.554-3.026l1.188-6.759.894-5.092.071-.396.068-.388 2.581-14.696a14169.8 14169.8 0 004.164-23.695l1.046-5.923c-2.32 1.229-4.708 2.381-7.03 3.592l-1.957 1.027-.46.246-.46.245a7040.97 7040.97 0 00-16.359 8.584 4820.49 4820.49 0 00-22.932 12.156c-6.8 3.616-13.569 7.285-20.305 11.006a124.008 124.008 0 00-11.375 6.647c-1.307.927-2.584-1.154-1.286-2.068.23-.162.465-.32.703-.474 4.132-2.688 8.555-5.014 12.886-7.397 6.965-3.833 13.974-7.592 20.991-11.333 7.59-4.047 15.193-8.071 22.811-12.072 5.079-2.67 10.163-5.334 15.25-7.992l.461-.246.46-.245 2.145-1.125 7.001-3.649.656-3.734.377-2.147.39-2.211.12-.673.068-.396.071-.395.19-1.086.56-3.194.419-2.383.013-.076-.1.052-1.825.943z" fill="#FE6B21"/><path d="M303.956 180.781s-.013 0-.015.039c.026-.022.039-.039.015-.039zm15.245 11.809c-1.191-3.617-3.546-6.797-6.742-9.104-2.165-1.756-4.923-2.734-7.783-2.762a3.674 3.674 0 00-.727.185v.078c0-.051 0-.014.031.054.042.121.118.344.141.396.098.204.211.402.338.592.297.474.637.923 1.014 1.344a12.91 12.91 0 004.386 3.451 3.64 3.64 0 001.462.246c.155-.014.312.002.46.048.148.046.284.121.399.22.115.098.207.219.27.353a.997.997 0 01.093.426c.061.265.015.543-.13.779a1.152 1.152 0 01-.655.493.684.684 0 01-.099.035 75.478 75.478 0 00-5.009 1.422 41.756 41.756 0 00-7.48 3.014 8.35 8.35 0 00-2.442 1.791c-.068.09-.13.185-.183.283-.053.09-.095.186-.126.285a.387.387 0 000 .159.149.149 0 00.052.062c.283.165.602.27.934.304a7.85 7.85 0 001.004.089h.304a23.921 23.921 0 003.457-.231 44.129 44.129 0 004.501-.821c1.368-.324 2.307 1.573.981 2.189a31.835 31.835 0 00-3.233 1.764c-.507.315-1.009.639-1.496.983-1.613 1.125-3.75 2.715-3.904 4.741 0-.022.089.133 0 .045.141.135-.134-.101.117.122-.198-.174.246.045 0 0 .139.032.262.079.416.109a8.525 8.525 0 002.262-.059 41.168 41.168 0 009.186-2.644 1.188 1.188 0 01.907.052c.243.118.432.315.531.555a1.123 1.123 0 01-.196 1.398 29.726 29.726 0 00-4.064 4.213 15.489 15.489 0 00-1.59 2.388 7.28 7.28 0 00-.524 1.248c-.111.342-.17.697-.175 1.054-.001.103.007.205.024.307.033.196.104.384.209.555.044.06.1.111.165.15.074.024.146.053.217.086.182.009.364.009.546 0a6.057 6.057 0 001.23-.263c.096-.032.191-.071.287-.106a16.138 16.138 0 003.005-1.474c.076-.044.147-.095.223-.142a29.576 29.576 0 002.95-2.042c.455-.356.889-.737 1.307-1.112a23.38 23.38 0 001.193-1.133l.133-.133c.191-.194.395-.38.578-.579a8.706 8.706 0 001.308-1.833 9.991 9.991 0 001.046-3.842c.055-.531.081-1.062.097-1.595 0-.403.016-.803 0-1.203-.016-.401-.026-.796-.055-1.194a23.495 23.495 0 00-1.151-5.796zm22.628-110.683c-.355-1.103-1.125-2.046-2.167-2.654a5.315 5.315 0 00-3.492-.648 6.556 6.556 0 01-2.213.695c-6.638 1.052-8.369-4.763-8.79-8.53a21.257 21.257 0 01-.094-1.098c-.262.246-.562.536-.895.83-2.979 2.665-6.694 4.49-10.723 5.268-8.502 1.597-8.345-2.703-8.345-2.703a38.799 38.799 0 01-8.244.492 15.943 15.943 0 00-1.506 2.926 20.796 20.796 0 00-1.496 7.286 17.783 17.783 0 001.773 7.348 17.903 17.903 0 003.575 5.196 20.19 20.19 0 005.942 4.177c-.015.265-.034.658-.042 1.149v.737c.027 3.012.524 8.137 3.471 9.446 1.9.604 3.955.625 5.869.059a1.23 1.23 0 01.625-.147c4.586-1.152 8.605-3.761 11.374-7.383a5.966 5.966 0 001.012-3.085v-.155c0-.052.016-.128.016-.194v-3.103c2.856-2.326 4.957-5.36 6.065-8.755a6.373 6.373 0 003.497.572 6.219 6.219 0 003.235-1.373 5.862 5.862 0 001.788-2.959 5.597 5.597 0 00-.235-3.394zm-42.039 1.07a.95.95 0 01-.41-.245 1.188 1.188 0 01-.374-.847v-1.72a1.19 1.19 0 01.374-.845c.239-.225.563-.351.902-.351.335.013.653.138.9.35.235.227.369.53.374.846v1.72a1.196 1.196 0 01-.374.847c-.24.224-.563.35-.9.351a1.03 1.03 0 01-.492-.105zm13.189 19.502a1.23 1.23 0 01-.465.607 1.364 1.364 0 01-.753.241 14.033 14.033 0 01-3.076-.435 19.591 19.591 0 01-1.517-.408 1.38 1.38 0 01-.654-.425 1.205 1.205 0 01-.225-.435 1.198 1.198 0 010-.612v-.017c.096-.302.314-.557.607-.71a1.36 1.36 0 01.963-.11c1.008.317 2.044.552 3.096.7.271.032.543.051.816.056.241.001.476.067.678.192.097.064.184.14.261.226.197.218.312.492.324.779a.923.923 0 01-.055.344v.007zm7.546-11.615c-2.616 4.746-9.826 7.633-14.908 4.451a11.98 11.98 0 01-3.481-3.873 11.211 11.211 0 01-1.42-4.89c-.009-.187.03-.374.114-.544.084-.17.211-.318.37-.431a1.31 1.31 0 011.13-.18 19.55 19.55 0 004.55.855c4.514.367 9.06.079 13.48-.854.73-.145 1.705.331 1.614 1.154a11.668 11.668 0 01-1.441 4.312h-.008zm3.991-9.69v1.506c-.006.317-.14.62-.374.848-.24.224-.564.35-.902.351-.171.006-.34-.03-.492-.103a.97.97 0 01-.411-.245 1.196 1.196 0 01-.374-.848v-1.72c.004-.317.138-.62.374-.847.24-.224.564-.35.903-.352a.99.99 0 01.491.104.97.97 0 01.411.245c.236.227.37.53.374.848v.214z" fill="#FFCEB6"/><path d="M393.952 201.348c-1.046-2.199-3.923-9.763-7.364-9.763-2.046 0-3.78 2.307-4.839 4.149a34.566 34.566 0 012.652 2.806c3.711 4.503 6.182 9.796 7.195 15.411.471 2.347.662 4.737.57 7.124a21.825 21.825 0 006.769 5.498c4.171.894 1.161-9.5.735-10.984a96.06 96.06 0 00-5.718-14.241zM212.805 360.381c-1.857.56-3.492 1.63-4.692 3.074-4.211 4.653-7.062 15.57 1.454 17.816 4.294 1.13 9.154-2.599 10.88-8.333 1.381-4.624-.385-14.399-7.642-12.557zm85.566-57.098a6.219 6.219 0 00-2.986 1.966c-2.678 2.962-4.496 9.907.925 11.337 2.734.72 5.833-1.653 6.923-5.301.879-2.944-.243-9.174-4.862-8.002zM284.667 84.218a19.1 19.1 0 003.708.737 21.652 21.652 0 00-2.16 3.103c-1.666 2.889-3.272 7.232-.57 10.578a8.654 8.654 0 004.849 2.157 73.524 73.524 0 0014.622.858c0-.492.027-.885.042-1.15a20.184 20.184 0 01-5.942-4.177 17.903 17.903 0 01-3.575-5.195 17.783 17.783 0 01-1.773-7.348c.055-2.491.56-4.955 1.496-7.287.397-1.02.902-2 1.506-2.926 2.759.13 5.525-.035 8.244-.491 0 0-.157 4.29 8.345 2.702 4.029-.778 7.744-2.603 10.723-5.267.306-.27.604-.546.895-.83.021.336.05.705.094 1.098.429 3.766 2.152 9.58 8.79 8.53a6.557 6.557 0 002.213-.696 5.315 5.315 0 013.492.649c1.042.607 1.812 1.55 2.167 2.653a5.6 5.6 0 01.241 3.393 5.86 5.86 0 01-1.781 2.96 6.219 6.219 0 01-3.235 1.374 6.373 6.373 0 01-3.497-.573c-1.108 3.395-3.209 6.429-6.065 8.756v3.102c0 .067 0 .131-.016.194-.015.064 0 .104 0 .155 2.584.457 6.016 1.049 9.329 1.577a94.575 94.575 0 0010.253 1.28c4.098 0 2.045-8.107-1.232-12.654.667.658 2.354 1.506 6.135-.491 2.796-1.487-.85-10.4-11.021-16.979a47.04 47.04 0 00-2.456-1.474.93.93 0 00.101-1.13 1.01 1.01 0 00-.286-.297 30.5 30.5 0 00-7.585-3.972 70.086 70.086 0 00-22.534-4.395c-3.9-.16-7.807-.092-11.698.204-2.816.206-5.624.506-8.424.899-1.619.226-.931 2.535.677 2.309 2.49-.347 4.997-.618 7.522-.813-1.732.829-3.079 2.228-3.782 3.93a2.38 2.38 0 00-.346 1.617c.082.56.362 1.077.796 1.47a96.677 96.677 0 00-9.847 7.806c-.068.07-.123.133-.183.2-1.909 2.033-.222 3.205 1.768 3.854z" fill="#29175F"/><path d="M305.607 95.315c5.092 3.182 12.293.295 14.908-4.451a11.63 11.63 0 001.438-4.312c.092-.823-.884-1.3-1.613-1.155a46.928 46.928 0 01-13.48.855 19.448 19.448 0 01-4.551-.855 1.306 1.306 0 00-1.129.18 1.169 1.169 0 00-.37.431c-.085.17-.124.357-.114.544.09 1.709.576 3.378 1.424 4.892a11.984 11.984 0 003.487 3.871zm-1.993-7.092a34.14 34.14 0 003.257.437 47.24 47.24 0 0012.145-.577c-.102.306-.218.609-.348.906-.782 1.795-2.189 3.288-3.991 4.236a8.545 8.545 0 01-7.189.364c-1.616-.909-2.833-2.329-3.432-4.005-.171-.447-.319-.9-.442-1.361zm19.626-4.344c.338-.001.662-.128.902-.351a1.21 1.21 0 00.374-.848v-1.72a1.188 1.188 0 00-.374-.847.967.967 0 00-.41-.245.99.99 0 00-.492-.104 1.335 1.335 0 00-.902.352c-.237.226-.371.53-.374.847v1.72c.003.317.137.62.374.847a.967.967 0 00.41.246.99.99 0 00.492.103zm-21.684-1.997v-1.72a1.191 1.191 0 00-.374-.845 1.466 1.466 0 00-.9-.351 1.32 1.32 0 00-.902.351c-.236.226-.37.529-.374.845v1.72c.004.317.138.621.374.848a.954.954 0 00.411.245c.151.074.321.11.491.103.338-.001.661-.127.9-.35a1.19 1.19 0 00.374-.846zm10.205 19.049a8.242 8.242 0 01-.816-.056 19.274 19.274 0 01-3.096-.7 1.361 1.361 0 00-.963.11 1.23 1.23 0 00-.607.71v.017a1.198 1.198 0 000 .612c.044.157.12.305.225.435.169.199.396.347.654.425.5.157 1.007.287 1.517.408 1.003.258 2.036.404 3.076.434a1.36 1.36 0 00.753-.24c.219-.152.381-.364.466-.607a.935.935 0 00.054-.351 1.234 1.234 0 00-.324-.779 1.314 1.314 0 00-.261-.226 1.296 1.296 0 00-.678-.192zm-.154 37.676c-.073 1.54 2.479 1.538 2.55 0 .332-7.102.902-14.197 1.431-21.287a9.69 9.69 0 003.108 4.155 10.616 10.616 0 004.92 2.106c1.81.278 3.667.097 5.378-.524a10.294 10.294 0 004.354-3.01 38.946 38.946 0 006.874-8.545 54.261 54.261 0 003.117-5.591c.134-.277.155-.59.058-.88a1.22 1.22 0 00-.284-.506 1.321 1.321 0 00-.498-.33 1.371 1.371 0 00-1.18.099 1.213 1.213 0 00-.301.398 47.31 47.31 0 01-7.796 11.888c-1.791 2.383-4.457 4.058-7.485 4.705a8.153 8.153 0 01-4.11-.914 7.515 7.515 0 01-2.986-2.806 15.622 15.622 0 01-2.393-4.972 1.23 1.23 0 00-.489-.631 1.37 1.37 0 00-.795-.226 1.23 1.23 0 00-.625.147.972.972 0 00-.421.423 10.873 10.873 0 01-2.947 4.041 11.757 11.757 0 01-4.538 2.412c-5.349.863-8.369-4.321-9.468-8.392a17.443 17.443 0 01-.667-3.709 1.13 1.13 0 00-.283-.706 1.259 1.259 0 00-.682-.397 1.276 1.276 0 00-.933.057c-.143.067-.271.16-.376.275a1.122 1.122 0 00-.234.39 1.14 1.14 0 00-.044.381c.15 3.916 1.54 7.701 3.993 10.871a9.792 9.792 0 003.432 2.686c1.346.639 2.83.98 4.339.999a11.132 11.132 0 004.049-.984 10.539 10.539 0 003.326-2.382c-.377 5.092-.734 10.185-1.072 15.281a270.895 270.895 0 00-.322 5.478z" fill="#29175F"/><path d="M309.518 125.038a1.32 1.32 0 00-.902-.351c-.338 0-.663.127-.902.351-.23.231-.363.532-.374.848-.039.737-.081 1.474-.105 2.211 0 .318.134.622.373.847a1.333 1.333 0 001.803.001c.232-.23.365-.532.374-.848.024-.737.068-1.474.107-2.211a1.19 1.19 0 00-.374-.848zm-.902 9.235a1.327 1.327 0 00-.902.351c-.23.23-.363.53-.374.846-.039.737-.081 1.474-.105 2.211 0 .237.074.469.214.666.14.197.339.351.572.442.233.091.49.114.737.068.248-.047.475-.161.653-.329.232-.229.366-.531.374-.847.024-.737.068-1.474.107-2.211 0-.318-.135-.622-.374-.847a1.323 1.323 0 00-.902-.35zm62.761-5.955a40.628 40.628 0 00-3.071-5.766l-.172-.263a1.293 1.293 0 00-.448-.398 1.37 1.37 0 00-.593-.16 1.375 1.375 0 00-.605.112 1.302 1.302 0 00-.483.36.985.985 0 00-.073 1.298 48.848 48.848 0 016.133 13.907c3.278 11.079 2.925 22.83-1.015 33.718-3.25 8.162-9.063 15.203-16.67 20.191a70.19 70.19 0 01-4.901 3.093l-.327.187c-.325.187-.657.361-.984.543-.494.273-.981.55-1.48.813a87.102 87.102 0 01-3.384 1.673 99.574 99.574 0 01-10.462 4.194c-3.4 1.152-6.863 2.004-10.338 2.864.055-.245.115-.491.157-.737.187-1.157.289-2.325.303-3.496v-1.201c0-.403-.031-.796-.063-1.191a25.837 25.837 0 00-1.017-5.405 21.217 21.217 0 00-3.416-6.697c-.743-1.88-1.484-3.764-2.225-5.65a60.522 60.522 0 0013.252-5.597c9.262-4.801 16.389-12.556 20.093-21.864a38.5 38.5 0 00.816-21.487c-.334-1.508-2.795-.869-2.458.639a36.705 36.705 0 01-.275 18.553c-1.474 4.839-4.09 9.305-7.652 13.065a47.637 47.637 0 01-10.833 8.47 64.887 64.887 0 01-9.839 4.641 45.553 45.553 0 01-5.118 1.624c-.325.087-.6.29-.767.566-.166.276-.21.602-.123.908l.714 1.811c-2.615-2.103-5.934-3.275-9.376-3.312a4.102 4.102 0 00-1.531.305 3.89 3.89 0 00-1.278.85 1.99 1.99 0 00-.381.71c-.077.69.002 1.388.231 2.048.23.659.604 1.267 1.1 1.782a17.724 17.724 0 003.967 3.763c.155.106.312.214.474.32a42.111 42.111 0 00-9.881 3.977 9.073 9.073 0 00-3.097 2.764 2.811 2.811 0 00-.133.231 10.74 10.74 0 00-.829-.696 17.706 17.706 0 00-1.878-1.245c.076-.104.14-.215.191-.332l2.581-5.957.372-.86a1.142 1.142 0 00-.123-.91 1.271 1.271 0 00-.769-.564 1.379 1.379 0 00-.963.124c-.292.156-.51.411-.606.714l-2.579 5.957-.29.673a48.62 48.62 0 00-3.322-1.457l2.54-5.869.371-.859c.09-.307.047-.634-.12-.91a1.26 1.26 0 00-.769-.564 1.31 1.31 0 00-.661.005c-.215.058-.41.17-.563.324-.148.148-.265.32-.345.508l-2.579 5.955-.032.072-5.528-2.113-.249-.096-.915-.349a1.361 1.361 0 00-.969.115 1.226 1.226 0 00-.601.723c-.081.306-.034.63.132.905a1.3 1.3 0 00.76.569l3.186 1.216-3.139 7.252-2.288 5.287-.968 2.231-5.398 12.47-1.258 2.903-2.547-.982-.916-.349a1.348 1.348 0 00-.968.114c-.294.157-.51.417-.601.724-.081.306-.034.63.132.904.166.275.438.479.76.57l6.342 2.422.074.029c-.783 1.812-1.568 3.621-2.354 5.427l-.372.863a1.13 1.13 0 00.119.91c.083.137.194.257.326.354.132.097.283.168.445.21.325.076.67.032.962-.123.292-.156.509-.411.607-.713l2.579-5.957c.899.378 1.809.737 2.722 1.081l.659.245a2688.22 2688.22 0 00-2.309 5.336l-.374.86c-.089.307-.044.634.123.91.167.276.443.479.769.564.326.077.671.032.963-.124.292-.156.509-.411.606-.714l2.579-5.955.036-.083a16.506 16.506 0 008.892.629c4.295-1.179 5.668-5.977 4.97-9.731-1.046-3.834-3.578-7.164-7.101-9.335-.48-.338-.969-.666-1.465-.983l-.329-.214a29 29 0 006.277-.639 19.624 19.624 0 002.877-.879 7.64 7.64 0 003.735-2.564 6.904 6.904 0 001.477-4.118c1.479.307 3.003.366 4.504.172l.17-.02c-2.17 1.283-3.748 3.285-4.42 5.609-.845 5.257 7.532 3.043 10.315 2.23-.296.349-.589.7-.866 1.059a16.64 16.64 0 00-1.88 2.909 7.555 7.555 0 00-.733 2.294 4.121 4.121 0 00.489 2.663c1.41 2.423 4.745 1.45 6.821.524.523-.226 1.015-.492 1.509-.752a26.58 26.58 0 002.43-1.489l.35-.245c.328-.231.65-.469.965-.713.316-.244.628-.49.937-.737l.382-.329c.491-.423.973-.85 1.435-1.29a14.658 14.658 0 002.765-3.439 86.568 86.568 0 0010.163-2.673 100.759 100.759 0 0016.155-6.633c.429-.225.855-.452 1.279-.683.424-.231.86-.477 1.308-.737a84.283 84.283 0 003.285-1.965c7.994-4.803 14.397-11.611 18.488-19.654 4.9-10.961 6.066-23.079 3.34-34.688a61.605 61.605 0 00-4.049-12.08zm-95.231 76.106l.262.034a1.91 1.91 0 00-.262-.015v-.019zm11.631 12.109c1.093 2.601.96 7.301-2.255 8.478-3.214 1.177-7.307-.246-10.312-1.3a50.397 50.397 0 01-6.251-2.685c2.093-4.843 4.189-9.686 6.29-14.529.134.109.285.197.448.261-.087-.037-.215-.086-.139-.054.076.032.227.091.34.14a36.404 36.404 0 014.807 2.493c3.072 1.677 5.536 4.182 7.072 7.191v.005zm2.471-13.119a22.386 22.386 0 01-8.421 1.31h-.293c-1.22 0-2.449-.046-3.685-.136a34.281 34.281 0 01-1.242-.11c-.126 0-.408-.049-.461-.054l.45-1.066 1.909-4.41 2.025-4.668c.39-.899.779-1.8 1.166-2.702 1.261.39 2.503.842 3.722 1.339l.884.366c2.424 1.046 6.086 2.565 7.208 5.006 1.009 2.17-1.25 4.275-3.262 5.12v.005zm13.71-22.628c.024 0 0 .017-.016.039.003-.039.011-.044.016-.044v.005zm16.461 20.022a21.234 21.234 0 01-.097 1.594 9.974 9.974 0 01-1.046 3.842 8.686 8.686 0 01-1.307 1.833c-.183.199-.387.386-.578.58l-.134.132c-.383.388-.781.766-1.192 1.133-.429.383-.866.757-1.308 1.113a29.567 29.567 0 01-2.95 2.041c-.076.047-.147.099-.222.143a16.24 16.24 0 01-3.006 1.474c-.096.034-.19.073-.287.105-.398.13-.811.218-1.229.263a5.544 5.544 0 01-.547 0 2.04 2.04 0 00-.217-.086.564.564 0 01-.165-.15 1.553 1.553 0 01-.209-.555 1.75 1.75 0 01-.024-.307c.005-.357.064-.712.176-1.054.134-.43.309-.847.523-1.248.452-.839.984-1.638 1.59-2.388a29.726 29.726 0 014.064-4.213 1.117 1.117 0 00.196-1.398 1.08 1.08 0 00-.531-.555 1.194 1.194 0 00-.907-.052 41.122 41.122 0 01-9.185 2.644c-.748.12-1.509.14-2.263.059-.141-.03-.277-.076-.415-.108-.207-.165.238.054 0 0-.262-.224.023 0-.118-.123.091.088 0-.066 0-.044.154-2.027 2.291-3.617 3.905-4.742a37.08 37.08 0 011.496-.982 31.433 31.433 0 013.232-1.764c1.326-.617.385-2.514-.981-2.189-1.483.35-2.985.624-4.501.82a23.78 23.78 0 01-3.457.231h-.304a8.033 8.033 0 01-1.004-.088 2.34 2.34 0 01-.934-.305.16.16 0 01-.052-.061.43.43 0 010-.16 1.39 1.39 0 01.126-.285c.054-.098.115-.192.183-.282a8.367 8.367 0 012.443-1.791 41.693 41.693 0 017.49-3.027 75.622 75.622 0 015.008-1.422.696.696 0 00.1-.035c.276-.082.509-.258.655-.493.145-.236.191-.514.129-.779a.983.983 0 00-.093-.426 1.038 1.038 0 00-.269-.353 1.122 1.122 0 00-.399-.22 1.192 1.192 0 00-.46-.048c-.501.019-1-.065-1.462-.246a12.891 12.891 0 01-4.386-3.451 9.89 9.89 0 01-1.015-1.344 4.954 4.954 0 01-.337-.592 8.131 8.131 0 01-.141-.396c-.027-.068-.042-.105-.032-.054v-.078a3.71 3.71 0 01.727-.185c2.861.028 5.618 1.006 7.784 2.762 3.195 2.307 5.551 5.487 6.742 9.104a23.475 23.475 0 011.221 7.009c-.01.391-.013.789-.026 1.192v.005zm-40.585-34.109a202.67 202.67 0 016.617-42.454c.261-.983.523-1.965.813-2.948a1.134 1.134 0 00-.123-.908 1.267 1.267 0 00-.77-.562 1.351 1.351 0 00-.967.113c-.294.156-.51.415-.601.721a196.838 196.838 0 00-6.18 30.708 184.953 184.953 0 00-1.342 15.335c-.065 1.538 2.485 1.533 2.553-.005z" fill="#29175F"/><path d="M359.567 250.04c-8.325.926-16.747-.675-24.033-4.57a34.386 34.386 0 01-2.84-1.761c-3.717-2.61-6.906-5.825-9.415-9.493-.12-.169-.23-.344-.345-.516l-.338-.491a41.747 41.747 0 01-1.404-2.317 37.609 37.609 0 01-1.146-2.257l-.021-.042-.034-.084-.112-.267a4.28 4.28 0 01-.089-.222 1.223 1.223 0 00-.403-.542l.063-.364.758-4.316.071-.396.068-.393.68-3.874.419-2.381.028-.164.442-2.506a1.156 1.156 0 00-.049-.683 1.24 1.24 0 00-.432-.552 1.364 1.364 0 00-.679-.25 1.385 1.385 0 00-.715.131l-2.845 1.474-.524.268-.784.405-.432.224-.871.449-2.278 1.18-3.978 2.056-28.102 14.539-13.989 7.23-11.984 6.2-7.804 4.037-29.352 15.184-9.617 4.975c-1.407.737-2.934 1.386-4.294 2.211l-8.024-2.39-10.773-3.206-9.794-2.921-2.488-.737-1.809-.538-1.883-.56-18.604-5.55-12.062-3.589-3.172-.944-6.193-1.845c-1.344-.397-2.691-.827-4.041-1.255-.656-.209-1.308-.41-1.972-.612-.664-.201-1.255-.383-1.883-.565a68.113 68.113 0 00-2.354-.621 1.218 1.218 0 00-.46-.118 1.19 1.19 0 00-.831.107c-.252.134-.44.354-.524.615a1.16 1.16 0 00-.097.774l1.8 8.515.913 4.319.523 2.52 2.95 13.972 5.474 25.922 1.616 7.66.293 1.381.29 1.376 2.796 13.236.105.492 3.211 15.207c.189.896.194 2.346 1.169 2.813.071.036.149.063.223.098-2.43 5.213-2.694 12.222 3.941 13.969 4.294 1.132 9.154-2.597 10.88-8.331l.057-.214 9.855 3.599 25.353 9.269 8.417 3.076c.946.344 2.641 1.351 3.661.848a17.92 17.92 0 001.915-1.285l4.757-3.194 9.502-6.375 6.666-4.471 5.919-3.973 1.242-.832 1.247-.838 13.19-8.844 23.143-15.526 20.821-13.972 14.437-9.686 3.575-2.398c.594-.398 1.179-.737 1.342-1.44.933-4.09 1.459-8.301 2.183-12.426l.497-2.825.068-.393.068-.391 3.591-20.434 4.501-25.611.1-.565.055-.31.099-.575a37.832 37.832 0 003.345 5.159l.345.443.325.42.028.034c4.72 6.046 11.276 10.609 18.807 13.089a45.91 45.91 0 0018.046 1.72c.191-.019.374-.076.54-.165.166-.09.309-.211.422-.356a1.26 1.26 0 00.234-.486c.041-.176.043-.357.005-.533a.942.942 0 00-.131-.372.988.988 0 00-.275-.294 1.099 1.099 0 00-.792-.189zm-40.569-34.976l-.419 2.383-.56 3.194-.191 1.085-.07.396-.068.395-.12.674-.39 2.211-.377 2.147-.656 3.734c-2.337 1.214-4.67 2.43-7.002 3.648l-2.144 1.125-.46.246-.461.246a8455.835 8455.835 0 00-15.25 7.991 5553.78 5553.78 0 00-22.811 12.072 1824.467 1824.467 0 00-20.991 11.333c-4.331 2.383-8.754 4.71-12.886 7.397-.238.154-.472.312-.703.474-1.308.914-.027 2.995 1.286 2.069a124.247 124.247 0 0111.375-6.648c6.729-3.729 13.513-7.37 20.305-11.006 7.63-4.078 15.274-8.13 22.932-12.156 5.447-2.869 10.9-5.73 16.359-8.583l.46-.246.46-.246 1.957-1.027c2.32-1.211 4.707-2.353 7.03-3.591l-1.046 5.923c-1.395 7.897-2.783 15.796-4.164 23.695l-2.581 14.696-.068.388-.071.395-.894 5.093-1.188 6.758c-.255.997-.44 2.008-.554 3.027l-10.156 6.815-25.523 17.125-31.026 20.818-10.2 6.84-1.247.84-1.243.83-12.553 8.432-1.428.958-8.843 5.933c-1.258.845-2.749 1.633-3.923 2.606l-20.138-7.355-25.916-9.466-7.061-2.577-6.8-2.484-.06-.282c-.621-2.948-1.242-5.887-1.863-8.817l-1.36-6.442-2.798-13.266-.29-1.375-.293-1.381-.131-.617-5.89-27.895-3.282-15.551a8716.565 8716.565 0 0052.639 16.953c3.861 1.229 7.718 2.484 11.62 3.587.326.083.674.041.967-.116.293-.157.508-.417.598-.723a1.137 1.137 0 00-.12-.908 1.27 1.27 0 00-.767-.565c-8.809-2.488-17.489-5.441-26.193-8.234-10.953-3.515-21.9-7.05-32.841-10.606l-6.479-2.103-.661-3.139-.523-2.521-.042-.192-1.684-7.974c-.129-.609-.238-1.228-.359-1.85l3.677 1.096 2.156.641 2.304.685 2.641.786 1.831.543 3.175.944 23.504 6.996 5.788 1.72 2.192.651 2.053.612 19.163 5.702.81.245 9.484 2.821c1.231.368 2.461.779 3.703 1.135l-.068 2.786-.094 3.97-.406 17.137-.489 20.75-.408 17.196-.018.828-.016.44c0 .418-.026.835-.044 1.255-.092 2.337-.228 4.693-.147 7.019v.121c.015.308.156.599.394.812.237.213.553.332.881.332.329 0 .645-.119.882-.332.238-.213.379-.504.393-.812l.149-6.24.021-.895v-.366l.029-1.267.369-15.507.489-20.747.426-18.027c.04-1.651.128-3.316.183-4.98.037-1.11.055-2.211.029-3.326.353-.155.693-.361 1.046-.54l5.231-2.703 19.754-10.22 23.428-12.118 3.612-1.87 12.203-6.314 16.077-8.315 23.243-12.023 5.688-2.949 1.282-.663h.02l.095-.049 1.208-.624 1.831-.946.099-.051-.023.071z" fill="#29175F"/><path d="M397.112 89.721a299.127 299.127 0 014.561-2.005c.562-.24 1.127-.476 1.695-.707l.262-.103.206-.081c.194-.074.387-.148.581-.216 1.519-.546.86-2.862-.678-2.312-5.67 2.026-11.11 4.783-16.547 7.289a2426.46 2426.46 0 00-20.175 9.424l-4.399 2.08c-1.465.696-.175 2.764 1.289 2.069 4.011-1.902 8.021-3.793 12.031-5.675 7.038-3.297 14.076-6.594 21.174-9.763zm-6.332 22.086c.196-.086.393-.167.589-.246l.029-.012.206-.076c.321-.092.593-.296.759-.57.165-.275.212-.598.13-.904a1.22 1.22 0 00-.601-.723 1.354 1.354 0 00-.968-.115c-2.048.737-4.014 1.72-5.981 2.626a682.082 682.082 0 00-7.145 3.336l-1.57.737c-1.464.696-.175 2.764 1.29 2.069 3.878-1.84 7.762-3.685 11.685-5.432.518-.226 1.046-.462 1.577-.69zm24.459 54.074c-4.014 1.926-7.796 4.38-11.602 6.633a1349.555 1349.555 0 00-14.028 8.439l-3.139 1.911c-1.37.838-.094 2.914 1.29 2.071 7.77-4.741 15.556-9.471 23.444-14.04 1.752-1.015 3.496-2.073 5.33-2.948 1.454-.7.165-2.769-1.295-2.066z" fill="#F5F8FF"/><path d="M315.796 50.375a12.884 12.884 0 00-2.417 2.196 14.505 14.505 0 00-3.272 6.171 1.142 1.142 0 00.091.939c.081.142.193.268.328.369.135.1.29.175.456.218a1.357 1.357 0 00.994-.127c.148-.083.277-.193.378-.324.101-.132.173-.28.212-.438a12.39 12.39 0 01.523-1.72c.047-.12.096-.24.149-.361 0-.017.117-.246.133-.288a14.028 14.028 0 011.577-2.486l.073-.09v-.015l.197-.226c.445-.507.927-.984 1.443-1.428.152-.13.309-.245.468-.38.16-.136.087-.07.027-.025.262-.18.44-.447.499-.747a1.13 1.13 0 00-.184-.865 1.272 1.272 0 00-.767-.509 1.34 1.34 0 00-.929.126l.021.01zm15.048 2.946a1.279 1.279 0 00-.778-.551 1.356 1.356 0 00-.966.12 1.236 1.236 0 00-.578.734c-.085.305-.042.63.12.905.06.145.121.29.175.438.234.621.418 1.259.552 1.906.178.836.259 1.688.243 2.54a11.064 11.064 0 01-.502 3.211c-.088.306-.044.633.124.908.167.276.444.477.769.562.326.084.674.043.968-.113a1.21 1.21 0 00.6-.72 13.707 13.707 0 00-.727-9.94z" fill="#29175F"/><path d="M194.963 206.303c11.034-3.598 36.411-5.441 49.652 15.979" stroke="#4355E6" stroke-width="2" stroke-linecap="round"/><path d="M294.981 183.123c-1.506-3.537-18.042 1.473-26.121 4.421-3.658 4.411-11.372 14.144-12.965 17.792-1.991 4.56.996 10.873.996 14.147 0 3.274 11.969 16.953 13.692 17.655 1.722.701 11.575-6.08 15.932-7.249 3.485-.935 5.269-4.209 5.725-5.729l.747-11.926 4.343-11.662c-2.489-1.122-3.205-2.15-2.831-2.969.628-3.124 1.988-10.943.482-14.48z" fill="#fff"/><path d="M231.999 179.18c.156.668.215 1.354.179 2.037a.816.816 0 01-.101.343.868.868 0 01-.241.275.923.923 0 01-.338.159.968.968 0 01-.379.015l-3.306-.513a.919.919 0 01-.525-.267.822.822 0 01-.233-.518 2.194 2.194 0 00-.557-1.396 3.02 3.02 0 00-.476-.419l-.951 5.415 1.358.772c1.869 1.035 3.07 2.236 3.603 3.602a7.82 7.82 0 01.41 4.27 7.367 7.367 0 01-1.121 2.843 8.077 8.077 0 01-2.075 2.138 7.882 7.882 0 01-2.808 1.237 8.221 8.221 0 01-2.016.208l-.455 2.593a1.078 1.078 0 01-.162.405 1.152 1.152 0 01-.315.315 1.224 1.224 0 01-.88.193 1.234 1.234 0 01-.431-.153 1.135 1.135 0 01-.336-.295 1.054 1.054 0 01-.205-.827l.45-2.561c-1.624-.405-3.06-1.303-4.083-2.555a6.701 6.701 0 01-1.156-1.967 7.031 7.031 0 01-.484-2.452 1.27 1.27 0 01.122-.574c.085-.18.211-.341.369-.471a1.517 1.517 0 011.17-.312l1.396.218.991.153c.294.047.565.178.775.376.21.198.35.452.399.728.069.382.187.754.351 1.109.195.42.55.756.994.944l1.073-6.108-1.185-.633a8.633 8.633 0 01-3.502-3.255 6.478 6.478 0 01-.695-4.494 7.111 7.111 0 011.146-2.838 7.477 7.477 0 012.146-2.075 7.42 7.42 0 012.734-1.123 8.607 8.607 0 011.916-.158l.4-2.28c.051-.29.223-.55.477-.721a1.249 1.249 0 011.311-.04 1.139 1.139 0 01.527.69c.034.142.04.288.015.432l-.399 2.275c.638.18 1.249.438 1.816.768a6.8 6.8 0 012.122 1.901 7.18 7.18 0 011.165 2.591zm-6.62 13.091a2.8 2.8 0 00-.266-1.865 3.273 3.273 0 00-.938-1.014l-.89 5.065a3.63 3.63 0 00.823-.329c.35-.197.647-.467.868-.789.22-.322.358-.687.403-1.068zm-2.482-9.214l.822-4.677a2.24 2.24 0 00-1.052.467 2.634 2.634 0 00-.991 1.646c-.081.474-.037.96.129 1.414.228.481.609.883 1.092 1.15z" fill="#FE6B21"/><path d="M287.891 195.029c.175.75.242 1.518.201 2.285a.912.912 0 01-.113.385.98.98 0 01-.27.308 1.045 1.045 0 01-.38.178 1.1 1.1 0 01-.424.017l-3.708-.575a1.035 1.035 0 01-.59-.3.926.926 0 01-.261-.581 2.455 2.455 0 00-.625-1.566 3.316 3.316 0 00-.533-.469l-1.067 6.073 1.524.866c2.096 1.161 3.443 2.507 4.04 4.04a8.755 8.755 0 01.46 4.788 8.238 8.238 0 01-1.257 3.189 9.084 9.084 0 01-2.328 2.398 8.845 8.845 0 01-3.148 1.387c-.74.17-1.5.249-2.262.234l-.51 2.908c-.028.161-.09.315-.182.454a1.293 1.293 0 01-.353.354 1.377 1.377 0 01-.987.216 1.38 1.38 0 01-.483-.171 1.295 1.295 0 01-.377-.332 1.184 1.184 0 01-.23-.927l.505-2.872c-1.821-.455-3.432-1.462-4.58-2.866a7.513 7.513 0 01-1.296-2.206 8.095 8.095 0 01-.245-.734 7.841 7.841 0 01-.298-2.017c-.005-.221.041-.44.137-.643.095-.202.236-.383.414-.528a1.69 1.69 0 011.311-.35l1.567.244 1.111.172c.33.052.633.2.869.421.236.222.392.508.448.817.077.428.21.846.394 1.244a2.13 2.13 0 001.115 1.058l1.203-6.85-1.33-.71a9.68 9.68 0 01-3.927-3.65 7.262 7.262 0 01-.779-5.04 7.954 7.954 0 011.285-3.183 8.399 8.399 0 012.406-2.328 8.34 8.34 0 013.067-1.26 9.734 9.734 0 012.149-.176l.449-2.558c.057-.325.249-.616.535-.808a1.4 1.4 0 011.47-.045c.148.086.276.199.377.332a1.193 1.193 0 01.23.926l-.447 2.552a8.762 8.762 0 012.037.861 7.64 7.64 0 012.379 2.132 8.016 8.016 0 011.307 2.906zm-7.424 14.683c.145-.71.04-1.444-.299-2.092a3.664 3.664 0 00-1.051-1.137l-.999 5.681c.324-.086.634-.21.924-.37.392-.221.725-.523.972-.884.247-.362.402-.772.453-1.198zm-2.784-10.334l.922-5.246a2.519 2.519 0 00-1.18.523 2.963 2.963 0 00-1.112 1.847c-.09.532-.04 1.076.145 1.586.256.539.683.99 1.225 1.29z" fill="#29175F"/><path d="M211.12 227.776a7.74 7.74 0 011.569 1.279c.08.087.14.188.175.297a.765.765 0 01-.087.659.85.85 0 01-.248.248l-2.621 1.722a.905.905 0 01-1.076-.061 2.37 2.37 0 00-1.372-.603 3.08 3.08 0 00-.622.012l3.197 4.293 1.476-.325c2.011-.465 3.684-.398 5.018.201a8.298 8.298 0 013.313 2.658 7.08 7.08 0 011.255 2.643c.215.906.249 1.842.102 2.76a6.617 6.617 0 01-1.038 2.604c-.342.517-.755.99-1.228 1.406l1.531 2.055a1.008 1.008 0 01.026 1.176c-.08.117-.183.218-.304.298-.121.08-.258.136-.402.166a1.205 1.205 0 01-.85-.141 1.113 1.113 0 01-.317-.286l-1.512-2.03a7.668 7.668 0 01-4.602.815 7.242 7.242 0 01-2.187-.619 8.015 8.015 0 01-.614-.309 7.487 7.487 0 01-1.458-1.061 1.3 1.3 0 01-.325-.468 1.218 1.218 0 01.094-1.087c.1-.163.237-.304.401-.412l1.108-.727.785-.516a1.42 1.42 0 01.796-.229c.284.003.56.089.789.246.319.218.664.398 1.028.538.432.164.912.171 1.349.02l-3.606-4.841-1.259.311a9.007 9.007 0 01-4.703-.027c-1.505-.46-2.798-1.389-3.666-2.632a6.833 6.833 0 01-1.234-2.656 6.512 6.512 0 01-.01-2.762 6.24 6.24 0 011.069-2.48 7.44 7.44 0 011.196-1.308l-1.347-1.808a1.009 1.009 0 01-.026-1.176c.079-.117.183-.218.304-.298a1.2 1.2 0 011.252-.025c.124.075.232.172.317.286l1.344 1.803a7.51 7.51 0 011.785-.615 7.109 7.109 0 012.799-.032 7.804 7.804 0 012.636 1.038zm4.781 13.086a2.988 2.988 0 00-1.507-1.106 3.448 3.448 0 00-1.36-.105l2.99 4.016c.143-.233.253-.482.328-.741.099-.353.11-.724.032-1.082a2.32 2.32 0 00-.483-.982zm-8.24-4.734l-2.761-3.707a1.881 1.881 0 00-.387.977 2.44 2.44 0 00.493 1.745c.282.375.657.678 1.092.885a2.73 2.73 0 001.563.1z" fill="#4355E6"/><path d="M152.333 214.79a7.707 7.707 0 011.569 1.279.787.787 0 01.206.635.782.782 0 01-.119.321.831.831 0 01-.247.247l-2.621 1.723a.897.897 0 01-.549.146.895.895 0 01-.527-.207 2.367 2.367 0 00-1.372-.604 3.08 3.08 0 00-.622.013l3.197 4.292 1.476-.324c2.011-.465 3.684-.399 5.018.2a8.305 8.305 0 013.313 2.658 7.087 7.087 0 011.255 2.643c.215.907.249 1.842.102 2.76a6.611 6.611 0 01-1.038 2.604c-.343.518-.755.99-1.229 1.407l1.532 2.055c.085.114.144.242.177.378.031.136.034.276.009.413a1.03 1.03 0 01-.16.384c-.08.118-.183.219-.304.299a1.179 1.179 0 01-1.252.024 1.113 1.113 0 01-.317-.286l-1.512-2.03a7.67 7.67 0 01-4.603.815 7.263 7.263 0 01-2.186-.618 8.03 8.03 0 01-.614-.31 7.446 7.446 0 01-1.458-1.061 1.292 1.292 0 01-.325-.468 1.216 1.216 0 01.094-1.086c.1-.164.236-.305.4-.413l1.109-.726.785-.517a1.435 1.435 0 011.585.018 5.05 5.05 0 001.028.537c.431.164.912.172 1.349.021l-3.606-4.842-1.259.311a8.997 8.997 0 01-4.703-.027c-1.505-.46-2.798-1.388-3.666-2.632a6.804 6.804 0 01-1.234-2.656 6.507 6.507 0 01-.01-2.761 6.244 6.244 0 011.069-2.481 7.44 7.44 0 011.196-1.308l-1.347-1.808a1.007 1.007 0 01-.026-1.175c.079-.117.183-.219.304-.298a1.159 1.159 0 01.842-.175 1.113 1.113 0 01.727.435l1.344 1.803a7.508 7.508 0 011.785-.614 7.071 7.071 0 012.799-.032 7.783 7.783 0 012.636 1.038zm4.78 13.086a2.981 2.981 0 00-1.506-1.106 3.43 3.43 0 00-1.36-.105l2.99 4.016c.143-.233.253-.482.328-.742.099-.353.11-.723.032-1.081a2.311 2.311 0 00-.484-.982zm-8.239-4.734l-2.762-3.708c-.22.287-.354.625-.386.978a2.437 2.437 0 00.493 1.745c.282.374.657.678 1.092.884a2.731 2.731 0 001.563.101z" fill="#FEB186"/></g><defs><linearGradient id="paint0_linear_76_4051" x1="124.028" y1="252" x2="457.104" y2="166.261" gradientUnits="userSpaceOnUse"><stop stop-color="#4C60E9"/><stop offset="1" stop-color="#7485FF"/></linearGradient><clipPath id="clip0_76_4051"><rect width="475" height="252" rx="20" fill="#fff"/></clipPath></defs></svg>