<svg width="32" height="32" fill="none" xmlns="http://www.w3.org/2000/svg"><g clip-path="url(#clip0_127_3438)" fill="#fff"><path d="M18.177 21.257a1.52 1.52 0 00-.427-.31c-.34-.178-.713-.285-1.082-.383v2.863c.6-.068 1.288-.285 1.603-.845.15-.268.18-.596.119-.894a.9.9 0 00-.213-.431z"/><path d="M18.267 22.587l.003-.005c0 .002-.002.004-.003.005zm-4.412-5.907a1.079 1.079 0 00-.185.504c-.018.182-.008.384.061.556.066.163.204.284.347.381.16.109.335.194.514.266.15.06.32.118.502.174v-2.59c-.46.098-.963.308-1.239.71zm4.427 5.88l-.012.022.012-.021zm.015-.026c.001-.002.002-.002 0 0z"/><path d="M17.676 6.963C20.11 4.918 21.737.31 20.736.109c-1.33-.268-4.218.907-5.614 1.114-1.98.239-4.137-2.147-5.347-.817-.985 1.081.705 5.014 3.35 6.727-7.888 3.877-18.975 23.338.366 24.75 26.762 1.954 13.361-21.143 4.185-24.92zm2.299 15.348a2.814 2.814 0 01-1.086 1.91c-.634.492-1.43.72-2.221.785v.838a.792.792 0 01-.266.59.794.794 0 01-.85.125.794.794 0 01-.458-.715v-.916a5.198 5.198 0 01-.404-.093c-.739-.203-1.425-.599-1.925-1.185a3.47 3.47 0 01-.692-1.265c-.026-.087-.053-.176-.062-.267a.787.787 0 011.53-.326c.03.09.05.183.084.273.034.09.074.176.121.258.094.163.21.313.346.443.278.268.632.442 1.002.546v-3.115c-.723-.187-1.468-.428-2.064-.892a2.403 2.403 0 01-.697-.837c-.17-.35-.24-.74-.244-1.127a2.685 2.685 0 01.236-1.141 2.78 2.78 0 01.646-.886c.58-.534 1.35-.831 2.123-.94v-.871c0-.224.098-.441.266-.59a.794.794 0 01.85-.125c.276.127.458.41.458.715v.865c.103.014.205.029.307.047.759.138 1.5.451 2.056.998a3.004 3.004 0 01.74 1.192c.03.091.06.186.074.28a.787.787 0 01-1.513.399c-.033-.086-.05-.177-.084-.263a1.393 1.393 0 00-.128-.248 1.503 1.503 0 00-.372-.39c-.315-.233-.698-.354-1.08-.422v2.98c.454.11.909.228 1.344.4.658.259 1.282.657 1.64 1.284-.055-.098-.11-.193.003.003.11.193.057.101.002.005.286.503.38 1.105.317 1.678zm-1.716.291l-.012.02.012-.02z"/></g><defs><clipPath id="clip0_127_3438"><path fill="#fff" d="M0 0h32v32H0z"/></clipPath></defs></svg>