<svg width="18" height="19" fill="none" xmlns="http://www.w3.org/2000/svg"><g clip-path="url(#clip0_6_1814)" fill="#7582A7"><path d="M11.116 3.533L1.212 13.557a.4.4 0 00-.103.183L.011 18.2a.4.4 0 00.103.375.388.388 0 00.37.103l4.406-1.111a.388.388 0 00.18-.104l9.906-10.024-3.86-3.906zm6.314-1.367L16.327 1.05c-.737-.746-2.02-.745-2.757 0l-1.35 1.367 3.86 3.906 1.35-1.367c.368-.372.57-.868.57-1.395s-.202-1.023-.57-1.395z"/></g><g clip-path="url(#clip1_6_1814)" fill="#7582A7"><path d="M11.116 3.533L1.212 13.557a.4.4 0 00-.103.183L.011 18.2a.4.4 0 00.103.375.388.388 0 00.37.103l4.406-1.111a.388.388 0 00.18-.104l9.906-10.024-3.86-3.906zm6.314-1.367L16.327 1.05c-.737-.746-2.02-.745-2.757 0l-1.35 1.367 3.86 3.906 1.35-1.367c.368-.372.57-.868.57-1.395s-.202-1.023-.57-1.395z"/></g><defs><clipPath id="clip0_6_1814"><path fill="#fff" transform="translate(0 .473)" d="M0 0h18v18.218H0z"/></clipPath><clipPath id="clip1_6_1814"><path fill="#fff" transform="translate(0 .473)" d="M0 0h18v18.218H0z"/></clipPath></defs></svg>