<svg width="16" height="16" fill="none" xmlns="http://www.w3.org/2000/svg"><g clip-path="url(#clip0_6_1891)" fill="#2F3A5C"><path d="M7.046 0A7.054 7.054 0 000 7.046a7.054 7.054 0 007.046 7.046 7.054 7.054 0 007.046-7.046A7.054 7.054 0 007.046 0zm0 12.791a5.752 5.752 0 01-5.745-5.745 5.752 5.752 0 015.745-5.745 5.752 5.752 0 015.745 5.745 5.752 5.752 0 01-5.745 5.745z"/><path d="M15.809 14.89l-3.729-3.729a.65.65 0 10-.92.92l3.73 3.729a.648.648 0 00.919 0 .65.65 0 000-.92z"/></g><defs><clipPath id="clip0_6_1891"><path fill="#fff" d="M0 0h16v16H0z"/></clipPath></defs></svg>